<svg width="741" height="625" viewBox="0 0 741 625" fill="none" xmlns="http://www.w3.org/2000/svg">
<g clip-path="url(#clip0_17_247)">
<path fill-rule="evenodd" clip-rule="evenodd" d="M532.06 21.1841C454.956 -31.9671 353.345 16.494 305.108 129.425L305.072 129.509C302.802 134.827 298.945 138.924 293.859 141.359C269.27 153.131 245.502 168.875 223.655 188.546C122.287 279.819 100.608 420.997 175.232 503.876C249.857 586.755 392.527 579.951 493.896 488.679C545.903 441.851 576.935 381.887 584.746 323.399C585.06 321.046 585.632 318.816 586.468 316.756C631.843 204.911 607.997 73.5299 532.06 21.1841Z" fill="black" fill-opacity="0.04"/>
<path fill-rule="evenodd" clip-rule="evenodd" d="M310.768 169.77C310.768 169.77 304.516 179.264 301.959 191.207C300.867 196.308 299.42 202.753 302.337 209.755C303.041 211.445 306.645 220.406 315.189 222.791C325.89 225.78 335.515 216.01 337.526 213.969C343.778 207.623 345.507 200.434 347.127 193.699C347.946 190.296 351.274 176.46 347.268 160.998C346.414 157.704 345.049 153.642 344.633 147.344C344.296 142.244 344.054 137.783 346.31 133.451C348.446 129.348 350.554 129.72 356.505 124.229C359.831 121.162 365.201 116.207 368.211 108.857C370.367 103.592 368.758 103.333 371.597 94.0447C373.688 87.2027 374.733 83.7817 377.521 81.3487C381.902 77.5267 386.443 78.6277 388.313 75.0007C389.392 72.9077 387.461 71.9427 387.73 67.1167C387.865 64.6957 388.01 62.0667 389.92 59.9287C391.446 58.2197 394.215 56.6917 396.632 57.3777C398.664 57.9537 398.86 59.6407 400.526 60.5327C403.217 61.9727 406.757 59.8157 411.801 56.8317C416.997 53.7567 417.004 53.6897 420.96 51.7477C426.302 49.1257 428.024 49.1717 429.519 47.4207C432.866 43.4997 428.656 33.1217 423.416 26.4337C414.471 15.0137 398.668 9.42574 384.122 10.5067C363.988 12.0037 351.919 25.8547 349.314 29.0207C340.764 39.4157 338.577 50.9397 337.465 56.7927C334.665 71.5437 338.978 74.6907 334.873 87.8967C333.273 93.0447 330.597 101.654 323.394 109.744C317.871 115.947 313.131 117.977 310.064 125.666C309.268 127.661 307.625 131.912 308.031 137.317C308.291 140.779 309.503 144.077 311.927 150.672C314.192 156.837 315.046 157.995 314.894 160.688C314.682 164.458 312.752 166.757 310.768 169.77Z" fill="black"/>
<path d="M391.577 101.342C391.747 100.531 392.542 100.011 393.353 100.181C394.116 100.341 394.621 101.054 394.536 101.814L394.513 101.956L391.963 114.137L390.912 119.147C390.81 119.633 390.474 120.037 390.015 120.226C385.249 122.186 379.96 123.328 373.95 123.068C369.417 122.871 365.189 121.876 361.278 120.278C360.511 119.964 360.143 119.089 360.457 118.322C360.77 117.555 361.646 117.187 362.413 117.501C366.017 118.974 369.909 119.889 374.08 120.07C379.184 120.291 383.728 119.412 387.852 117.855L388.142 117.742L391.577 101.342Z" fill="black"/>
<path d="M427.245 40.8088C428.068 40.7148 428.812 41.3058 428.906 42.1288C430.852 59.1798 428.949 74.0378 423.782 86.0458C419.513 95.9558 412.298 102.731 403.706 104.284C402.729 104.464 401.603 104.514 400.361 104.447C398.29 104.345 395.85 103.923 393.227 103.248L388.326 101.951C387.994 101.861 387.69 101.778 387.393 101.696L386.608 101.476C385.523 101.167 384.475 100.85 383.259 100.462C382.47 100.21 382.034 99.3658 382.287 98.5758C382.539 97.7868 383.383 97.3518 384.172 97.6038L385.309 97.9618C385.857 98.1308 386.38 98.2878 386.904 98.4398L387.806 98.6968L389.362 99.1228L393.434 100.2C396.088 100.913 398.53 101.353 400.516 101.451C401.545 101.507 402.44 101.467 403.168 101.333C410.671 99.9758 417.126 93.9148 421.027 84.8598C425.978 73.3508 427.814 59.0188 425.925 42.4688C425.831 41.6458 426.422 40.9028 427.245 40.8088Z" fill="black"/>
<path d="M337.719 212.011C338.535 211.87 339.312 212.417 339.453 213.233C341.531 225.246 343.282 237.445 344.685 249.831C347.984 279.081 349.143 307.711 348.447 335.707L348.413 336.974L349.519 336.052C351.189 334.673 352.897 333.315 354.645 331.979L355.963 330.981C358.463 329.109 360.98 327.328 363.508 325.638C364.197 325.177 365.128 325.362 365.589 326.051C366.049 326.74 365.864 327.671 365.175 328.132C362.692 329.792 360.219 331.542 357.762 333.382C354.288 335.986 350.971 338.678 347.802 341.448C346.815 342.311 345.273 341.581 345.316 340.271C346.262 310.935 345.169 280.894 341.704 250.168C340.308 237.841 338.565 225.7 336.497 213.745C336.356 212.928 336.903 212.152 337.719 212.011Z" fill="black"/>
<path d="M376.16 202.829C376.987 202.774 377.701 203.4 377.756 204.226C379.743 234.121 383.65 264.375 389.745 294.997C392.546 309.075 395.75 322.918 399.332 336.545C399.549 337.37 399.035 338.199 398.221 338.387L398.083 338.412L374.355 341.631C373.637 341.729 372.951 341.298 372.727 340.609C368.76 328.408 365.447 315.703 362.908 302.426C360.599 290.356 359.057 278.484 358.181 266.789C358.119 265.963 358.738 265.243 359.564 265.181C360.391 265.119 361.11 265.739 361.172 266.565C362.04 278.148 363.567 289.908 365.855 301.862C368.25 314.386 371.34 326.397 375.023 337.951L375.196 338.489L396.003 335.666L395.666 334.372C392.629 322.615 389.872 310.698 387.411 298.609L386.802 295.583C380.682 264.829 376.758 234.447 374.763 204.425C374.708 203.599 375.333 202.884 376.16 202.829Z" fill="black"/>
<path d="M388.286 117.703C389.007 117.295 389.922 117.549 390.33 118.27C393.014 123.013 395.695 127.196 398.439 131.082C399.652 132.795 400.768 134.291 401.918 135.755C402.192 136.103 402.469 136.451 402.752 136.803L403.183 137.334C404.228 138.617 412.658 148.42 417.855 154.652L424.772 163.022C430.873 170.446 432.507 172.623 433.416 174.366C434.265 175.995 434.953 177.565 435.506 179.134L435.707 179.723C437.525 185.222 437.773 188.089 437.316 201.844L437.02 210.194C436.971 211.669 436.929 213.062 436.893 214.47L436.844 216.838L436.833 217.631C436.628 233.025 437.026 251.394 438.519 269.103C439.382 279.305 440.67 288.855 442.242 297.707C442.384 298.509 441.859 299.279 441.06 299.44C434.672 300.721 428.184 302.3 421.621 304.19C414.157 306.342 406.947 308.8 399.981 311.526C399.21 311.828 398.34 311.447 398.038 310.676C397.736 309.904 398.117 309.034 398.888 308.732C405.938 305.973 413.235 303.485 420.791 301.307C426.829 299.568 432.807 298.089 438.703 296.86L439.035 296.791L438.796 295.385C437.512 287.735 436.442 279.589 435.671 270.975L435.53 269.355C434.071 252.057 433.652 234.159 433.817 218.965L433.876 215.102L433.932 212.979C433.979 211.327 434.035 209.653 434.102 207.799L434.315 201.814C434.761 188.449 434.528 185.714 432.858 180.665C432.393 179.257 431.807 177.848 431.077 176.384L430.656 175.566C429.785 173.983 427.85 171.478 421.415 163.663L415.206 156.16C410.34 150.337 402.93 141.708 401.142 139.573L400.857 139.229C400.41 138.681 399.981 138.145 399.56 137.609C398.378 136.106 397.233 134.569 395.989 132.814C393.19 128.849 390.455 124.582 387.719 119.748C387.311 119.027 387.565 118.111 388.286 117.703Z" fill="black"/>
<path d="M434.272 297.867C435.051 297.867 435.692 298.462 435.765 299.222L435.772 299.367V460.611L435.767 460.734L435.751 460.857L414.294 589.889C414.158 590.706 413.386 591.258 412.569 591.122C411.8 590.995 411.265 590.303 411.318 589.54L411.335 589.397L432.771 460.49L432.772 299.367C432.772 298.587 433.367 297.946 434.127 297.874L434.272 297.867Z" fill="black"/>
<path d="M378.638 370.387C379.414 370.314 380.108 370.846 380.252 371.597L380.272 371.74L388.875 463.278L388.881 463.463L384.58 609.314C384.555 610.142 383.864 610.793 383.036 610.769C382.257 610.746 381.634 610.132 381.584 609.37L381.581 609.225L385.879 463.462L377.285 372.021C377.212 371.245 377.745 370.551 378.495 370.407L378.638 370.387Z" fill="black"/>
<path fill-rule="evenodd" clip-rule="evenodd" d="M378.779 589.643H422.262L457.884 598.171C462.92 599.376 466.47 603.878 466.47 609.056V615.038L378.779 613.984V589.643Z" fill="black"/>
<path fill-rule="evenodd" clip-rule="evenodd" d="M309.277 542.44L288.317 565.32L346.874 614.727H364.665V609.47L351.148 599.917L338.443 564.649L309.277 542.44Z" fill="black"/>
<path d="M385.375 453.538C385.896 452.893 386.84 452.794 387.485 453.315C388.088 453.803 388.214 454.664 387.798 455.3L387.708 455.424L313.227 547.516C312.706 548.16 311.761 548.26 311.117 547.739C310.513 547.251 310.388 546.39 310.804 545.754L310.894 545.63L385.375 453.538Z" fill="black"/>
<path d="M384.784 516.745C385.407 516.199 386.354 516.26 386.901 516.882C387.414 517.465 387.392 518.335 386.875 518.892L386.765 518.999L335.352 564.184C334.73 564.731 333.782 564.67 333.235 564.047C332.722 563.464 332.744 562.595 333.261 562.038L333.371 561.93L384.784 516.745Z" fill="black"/>
<path d="M394.132 336.042C394.849 335.626 395.767 335.87 396.183 336.587L397.202 338.357C397.907 339.591 398.671 340.942 399.526 342.47L400.561 344.342C408.049 357.973 409.541 362.562 408.378 365.814C405.948 372.615 395.914 376.583 386.984 375.55C384.878 375.308 383.154 374.971 381.131 374.213C378.004 373.041 375.485 371.207 373.896 368.537C372.14 365.589 372.038 362.397 373.395 354.314C374.199 349.481 375.265 344.501 376.708 339.215C376.926 338.415 377.751 337.944 378.55 338.162C379.349 338.38 379.82 339.205 379.602 340.004C378.296 344.79 377.305 349.317 376.541 353.712L376.354 354.808C375.107 362.237 375.19 364.847 376.474 367.002C377.673 369.016 379.644 370.452 382.184 371.403C383.927 372.056 385.443 372.353 387.328 372.569C395.027 373.461 403.683 370.038 405.553 364.804L405.601 364.656C406.28 362.383 404.658 357.884 396.906 343.931L395.412 341.278C394.757 340.122 394.156 339.073 393.588 338.092C393.172 337.376 393.416 336.458 394.132 336.042Z" fill="black"/>
<path d="M355.729 331.277C356.519 331.03 357.36 331.471 357.607 332.262C359.799 339.295 362.521 346.29 365.867 353.249C370.157 362.185 375.127 370.358 380.634 377.85C381.124 378.518 380.981 379.457 380.313 379.947C379.646 380.438 378.707 380.294 378.216 379.627C372.603 371.988 367.536 363.657 363.163 354.549C359.752 347.455 356.978 340.324 354.743 333.155C354.496 332.364 354.938 331.523 355.729 331.277Z" fill="black"/>
<path d="M373.249 359.587C373.952 359.148 374.877 359.361 375.317 360.063C375.756 360.765 375.543 361.691 374.841 362.13C373.718 362.833 372.618 363.534 371.538 364.235L370.464 364.936C347.832 379.693 327.048 397.649 309.413 417.707L307.869 419.478C305.794 421.873 303.767 424.259 301.136 427.4L292.615 437.618C283.662 448.322 278.341 454.362 272.03 460.787C263.35 469.625 254.904 476.742 245.933 482.51L244.255 483.575C225.965 494.898 201.14 499.195 181.692 493.818C180.894 493.598 180.426 492.771 180.646 491.973C180.867 491.175 181.693 490.706 182.492 490.927C201.101 496.072 225.072 491.923 242.656 481.036L243.425 480.55C259.688 470.297 271.08 458.761 292.202 433.432L298.477 425.903C301.54 422.243 303.786 419.601 306.173 416.855C323.876 396.506 344.782 378.267 367.576 363.243L368.821 362.426C370.257 361.482 371.733 360.536 373.249 359.587Z" fill="black"/>
<path d="M186.573 450.614C187.399 450.547 188.123 451.161 188.19 451.987C190.215 476.838 184.715 498.523 170.688 515.379L169.766 516.475C166.553 520.257 163.401 523.537 157.868 528.952L152.652 534.026C138.172 548.147 132.173 555.371 127.324 566.163C120.632 581.081 120.789 598.392 127.296 614.466C127.606 615.234 127.236 616.109 126.468 616.419C125.7 616.73 124.826 616.36 124.515 615.592C117.712 598.786 117.547 580.628 124.587 564.934L124.958 564.118C130.067 553.059 136.473 545.549 151.63 530.834L154.116 528.422C161.201 521.528 164.602 518.002 168.382 513.459C181.862 497.261 187.165 476.351 185.2 452.231C185.133 451.405 185.748 450.681 186.573 450.614Z" fill="black"/>
<path d="M233.27 394.769C239.309 391.724 242.706 391.351 244.985 392.443C248.784 394.235 250.764 399.531 250.655 404.805C250.643 405.485 250.593 406.098 250.505 406.604C250.397 407.516 250.195 408.408 249.902 409.312C248.603 413.314 246.014 416.358 241.034 420.558L237.007 423.898L236.128 424.643C230.258 429.683 227.131 433.679 225.497 439.23L225.38 439.639C224.566 442.579 224.867 445.935 226.905 458.32L234.651 504.804L235.062 507.114C238.819 528.45 240.376 543.555 239.383 561.602C238.442 578.577 234.827 596.315 227.077 615.589C226.767 616.357 225.894 616.73 225.125 616.421C224.357 616.111 223.984 615.238 224.293 614.469C231.914 595.518 235.464 578.1 236.387 561.436C237.347 543.992 235.88 529.286 232.302 508.747L231.227 502.582L223.703 457.328C221.81 445.707 221.549 442.348 222.452 438.977L222.489 438.838C224.324 432.225 227.905 427.68 234.626 421.981L236.37 420.529C237.382 419.691 238.646 418.647 239.1 418.264L239.885 417.594C243.948 414.081 246.032 411.516 247.048 408.386C247.283 407.662 247.442 406.962 247.536 406.178C247.608 405.757 247.646 405.291 247.655 404.748C247.743 400.523 246.171 396.32 243.697 395.153C243.241 394.934 242.702 394.836 241.679 394.948C239.995 395.133 237.677 395.907 234.622 397.447C232.51 398.516 230.725 399.602 229.091 400.788L227.882 401.691C227.297 402.14 226.796 402.553 225.989 403.255L223.851 405.14C221.152 407.538 219.334 408.914 216.755 410.325C214.418 411.604 212.528 412.286 210.335 412.724L209.892 412.808C209.456 412.887 209.035 412.955 208.439 413.043L207.384 413.2C204.765 413.594 203.565 413.846 201.454 414.493C193.838 416.824 187.174 421.338 181.475 427.297C179.379 429.488 177.532 431.757 175.931 434.013C174.854 435.53 174.058 436.793 173.434 437.879C169.865 444.055 167.385 451.578 166.484 458.318C165.698 464.202 166.345 468.502 167.575 469.082C168.34 469.443 170.409 468.368 173.12 465.923C174.063 465.072 175.06 464.085 176.111 462.973L176.819 462.215C177.895 461.05 178.892 459.903 180.423 458.106C182.281 455.926 183.95 453.644 185.428 451.306C187.367 448.244 188.893 445.239 190.202 442.127C190.523 441.364 191.403 441.005 192.166 441.326C192.93 441.647 193.289 442.527 192.968 443.29C191.598 446.547 189.998 449.698 187.963 452.91C186.412 455.364 184.659 457.761 182.707 460.051L181.489 461.474C180.281 462.875 179.383 463.879 178.292 465.034C177.19 466.2 176.137 467.241 175.129 468.15L174.578 468.639C171.213 471.566 168.526 472.848 166.295 471.795C160.565 469.092 163.031 450.185 170.603 436.786L170.834 436.382C171.501 435.221 172.348 433.878 173.485 432.276C175.167 429.906 177.105 427.526 179.307 425.223C185.336 418.919 192.421 414.121 200.575 411.625L201.202 411.436C203.016 410.902 204.29 410.639 206.53 410.295L208.642 409.977C208.901 409.936 209.127 409.898 209.356 409.856C211.432 409.479 213.111 408.899 215.315 407.693C217.528 406.482 219.128 405.297 221.443 403.264L224.06 400.957C225.117 400.038 225.68 399.587 226.565 398.925L226.856 398.708C228.745 397.294 230.808 396.015 233.27 394.769Z" fill="black"/>
<path d="M217.141 540.942C217.968 540.89 218.68 541.518 218.732 542.345C219.361 552.34 218.716 562.659 216.35 573.344C212.712 589.742 205.784 603.802 196.811 615.922C196.318 616.587 195.378 616.728 194.713 616.235C194.047 615.742 193.907 614.802 194.4 614.137C203.138 602.334 209.882 588.649 213.421 572.695C215.722 562.302 216.35 552.261 215.738 542.533C215.686 541.706 216.314 540.994 217.141 540.942Z" fill="black"/>
<path d="M191.053 555.059C191.881 555.036 192.571 555.688 192.594 556.517C192.862 565.984 191.55 575.745 187.801 585.832C184.709 594.146 180.341 601.497 175.022 607.973C173.347 610.005 171.624 611.9 169.84 613.696C168.993 614.532 168.145 615.342 167.294 616.13C166.685 616.693 165.736 616.656 165.174 616.047C164.611 615.439 164.648 614.49 165.256 613.928C166.084 613.162 166.908 612.375 167.721 611.571C169.432 609.85 171.092 608.024 172.706 606.067C177.82 599.84 182.018 592.774 184.989 584.786C188.592 575.094 189.853 565.708 189.596 556.601C189.572 555.773 190.225 555.083 191.053 555.059Z" fill="black"/>
<path d="M736.045 613.529C736.874 613.529 737.545 614.2 737.545 615.029C737.545 615.809 736.95 616.449 736.19 616.522L736.045 616.529H5.97501C5.14701 616.529 4.47501 615.857 4.47501 615.029C4.47501 614.249 5.07001 613.608 5.83101 613.536L5.97501 613.529H736.045Z" fill="black"/>
<path fill-rule="evenodd" clip-rule="evenodd" d="M77.708 282.937L130.957 242.381C131.494 241.972 132.237 241.972 132.774 242.381L186.023 282.937C186.812 283.538 186.812 284.724 186.023 285.324L132.774 325.88C132.237 326.289 131.494 326.289 130.957 325.88L77.708 285.324C76.919 284.724 76.919 283.538 77.708 282.937ZM182.639 284.13L131.865 245.459L81.091 284.13L131.865 322.801L182.639 284.13Z" fill="black"/>
<path d="M185.114 282.631C185.894 282.631 186.535 283.225 186.608 283.986L186.614 284.131V343.128C186.614 343.544 186.442 343.939 186.142 344.221L186.023 344.321L132.774 384.877C132.279 385.254 131.607 385.283 131.084 384.964L130.957 384.877L77.708 344.321C77.377 344.069 77.167 343.692 77.124 343.282L77.116 343.128V284.131C77.116 283.302 77.788 282.631 78.616 282.631C79.396 282.631 80.037 283.225 80.11 283.986L80.116 284.131V342.384L131.865 381.798L183.614 342.384V284.131C183.614 283.351 184.209 282.71 184.97 282.637L185.114 282.631Z" fill="black"/>
<path d="M131.866 323.186C132.645 323.186 133.286 323.781 133.359 324.542L133.366 324.686V383.683C133.366 384.512 132.694 385.183 131.866 385.183C131.086 385.183 130.445 384.588 130.372 383.828L130.366 383.683V324.686C130.366 323.858 131.037 323.186 131.866 323.186Z" fill="black"/>
<path fill-rule="evenodd" clip-rule="evenodd" d="M131.866 324.686L185.115 284.13V343.127L131.866 383.683V324.686Z" fill="black"/>
<path fill-rule="evenodd" clip-rule="evenodd" d="M152.741 49.7368L205.99 9.18175C206.527 8.77275 207.271 8.77275 207.808 9.18175L261.057 49.7368C261.845 50.3368 261.845 51.5228 261.057 52.1238L207.808 92.6798C207.271 93.0888 206.527 93.0888 205.99 92.6798L152.741 52.1238C151.953 51.5228 151.953 50.3368 152.741 49.7368ZM257.672 50.9298L206.899 12.2598L156.125 50.9298L206.899 89.5997L257.672 50.9298Z" fill="black"/>
<path d="M260.148 49.4297C260.928 49.4297 261.568 50.0247 261.641 50.7857L261.648 50.9297V109.928C261.648 110.344 261.475 110.739 261.175 111.021L261.057 111.122L207.808 151.677C207.312 152.054 206.64 152.083 206.118 151.764L205.99 151.677L152.741 111.122C152.41 110.869 152.201 110.493 152.158 110.083L152.15 109.928V50.9297C152.15 50.1017 152.822 49.4297 153.65 49.4297C154.43 49.4297 155.07 50.0247 155.143 50.7857L155.15 50.9297V109.185L206.899 148.597L258.648 109.184V50.9297C258.648 50.1507 259.243 49.5097 260.004 49.4367L260.148 49.4297Z" fill="black"/>
<path d="M206.899 89.9847C207.679 89.9847 208.32 90.5797 208.392 91.3407L208.399 91.4847V150.483C208.399 151.312 207.728 151.983 206.899 151.983C206.119 151.983 205.479 151.389 205.406 150.628L205.399 150.483V91.4847C205.399 90.6567 206.071 89.9847 206.899 89.9847Z" fill="black"/>
<path fill-rule="evenodd" clip-rule="evenodd" d="M206.899 91.4857L153.65 50.9297V109.928L206.899 150.484V91.4857Z" fill="black"/>
<path fill-rule="evenodd" clip-rule="evenodd" d="M555.046 130.848L608.295 90.2917C608.832 89.8827 609.576 89.8827 610.113 90.2917L663.362 130.848C664.15 131.449 664.15 132.635 663.362 133.235L610.113 173.791C609.576 174.2 608.832 174.2 608.295 173.791L555.046 133.235C554.258 132.635 554.258 131.449 555.046 130.848ZM659.978 132.041L609.204 93.3697L558.43 132.041L609.204 170.712L659.978 132.041Z" fill="black"/>
<path fill-rule="evenodd" clip-rule="evenodd" d="M555.955 132.042L609.204 172.598L662.453 132.042L609.204 91.4857L555.955 132.042Z" fill="black"/>
<path d="M662.453 130.542C663.233 130.542 663.874 131.136 663.946 131.897L663.953 132.042V191.039C663.953 191.455 663.78 191.85 663.48 192.132L663.362 192.232L610.113 232.788C609.617 233.165 608.945 233.194 608.423 232.875L608.295 232.788L555.046 192.232C554.715 191.98 554.506 191.603 554.463 191.193L554.455 191.039V132.042C554.455 131.213 555.127 130.542 555.955 130.542C556.735 130.542 557.376 131.136 557.448 131.897L557.455 132.042V190.295L609.204 229.709L660.953 190.295V132.042C660.953 131.262 661.548 130.621 662.309 130.548L662.453 130.542Z" fill="black"/>
<path d="M609.204 171.097C609.984 171.097 610.625 171.692 610.697 172.453L610.704 172.597V231.594C610.704 232.423 610.033 233.094 609.204 233.094C608.425 233.094 607.784 232.5 607.711 231.739L607.704 231.594V172.597C607.704 171.769 608.376 171.097 609.204 171.097Z" fill="black"/>
<path d="M487.783 207.019C488.424 206.494 489.369 206.587 489.894 207.228C490.387 207.828 490.335 208.697 489.799 209.236L489.685 209.339L474.781 221.564C471.294 224.424 466.549 225.188 462.351 223.587L462.03 223.459L450.018 218.497L435.378 218.918C434.599 218.941 433.941 218.365 433.847 217.606L433.836 217.462C433.813 216.683 434.39 216.025 435.148 215.931L435.292 215.92L450.252 215.49C450.41 215.485 450.568 215.506 450.719 215.55L450.868 215.603L463.175 220.687C466.33 221.99 469.931 221.508 472.628 219.443L472.878 219.244L487.783 207.019Z" fill="black"/>
<path d="M460.623 191.078C462.856 189.996 465.447 189.953 467.706 190.951L467.987 191.081L479.571 196.71C480.316 197.072 480.627 197.969 480.265 198.715C479.924 199.416 479.109 199.732 478.393 199.465L478.26 199.408L466.676 193.779C465.262 193.092 463.624 193.053 462.184 193.663L461.933 193.777L447.22 200.918C447.066 200.993 446.902 201.04 446.734 201.059L446.565 201.069H435.905C435.076 201.069 434.405 200.397 434.405 199.569C434.405 198.789 434.999 198.149 435.76 198.076L435.905 198.069L446.22 198.068L460.623 191.078Z" fill="black"/>
<path d="M515.794 178.048C516.469 177.568 517.405 177.726 517.885 178.401C518.337 179.036 518.224 179.903 517.646 180.403L517.532 180.493L467.505 216.073C466.83 216.553 465.894 216.395 465.414 215.72C464.962 215.084 465.075 214.217 465.653 213.717L465.767 213.628L515.794 178.048Z" fill="black"/>
<path d="M501.747 91.4428C521.77 80.4028 540.958 79.7188 559.255 91.3068C559.955 91.7498 560.163 92.6768 559.72 93.3768C559.277 94.0768 558.35 94.2848 557.65 93.8418C540.348 82.8838 522.318 83.5268 503.195 94.0708C487.624 102.656 472.13 117.178 454.836 137.867C454.304 138.503 453.358 138.588 452.723 138.056C452.087 137.525 452.003 136.579 452.534 135.943L454.031 134.163C470.946 114.155 486.235 99.9958 501.747 91.4428Z" fill="black"/>
<path d="M323.411 270.68C324.104 270.226 325.034 270.419 325.488 271.111C325.943 271.804 325.75 272.734 325.057 273.188C292.084 294.833 255.822 307.727 221.634 308.344C220.806 308.359 220.122 307.7 220.107 306.871C220.092 306.043 220.752 305.36 221.58 305.345C255.152 304.739 290.881 292.034 323.411 270.68Z" fill="black"/>
<path d="M125.656 78.2448C126.389 77.8598 127.296 78.1407 127.682 78.8737C128.068 79.6067 127.786 80.5138 127.053 80.8997C81.24 105.01 64.318 165.266 86.016 216.231C86.34 216.994 85.986 217.875 85.223 218.199C84.461 218.524 83.58 218.169 83.256 217.406C60.978 165.079 78.377 103.127 125.656 78.2448Z" fill="black"/>
<path d="M502.155 338.519C502.934 338.519 503.575 339.114 503.648 339.875L503.655 340.019V458.399C503.655 459.228 502.983 459.899 502.155 459.899C501.375 459.899 500.734 459.304 500.661 458.544L500.655 458.399V340.019C500.655 339.191 501.326 338.519 502.155 338.519Z" fill="black"/>
<path d="M543.925 338.519C544.705 338.519 545.345 339.114 545.418 339.875L545.425 340.019V458.399C545.425 459.228 544.753 459.899 543.925 459.899C543.145 459.899 542.505 459.304 542.432 458.544L542.425 458.399V340.019C542.425 339.191 543.097 338.519 543.925 338.519Z" fill="black"/>
<path d="M585.694 338.519C586.474 338.519 587.115 339.114 587.188 339.875L587.194 340.019V458.399C587.194 459.228 586.523 459.899 585.694 459.899C584.915 459.899 584.274 459.304 584.201 458.544L584.194 458.399V340.019C584.194 339.191 584.866 338.519 585.694 338.519Z" fill="black"/>
<path d="M627.473 338.519C628.253 338.519 628.893 339.114 628.966 339.875L628.973 340.019V458.399C628.973 459.228 628.301 459.899 627.473 459.899C626.693 459.899 626.053 459.304 625.98 458.544L625.973 458.399V340.019C625.973 339.191 626.645 338.519 627.473 338.519Z" fill="black"/>
<path d="M669.242 338.519C670.022 338.519 670.663 339.114 670.735 339.875L670.742 340.019V458.399C670.742 459.228 670.071 459.899 669.242 459.899C668.463 459.899 667.822 459.304 667.749 458.544L667.742 458.399V340.019C667.742 339.191 668.414 338.519 669.242 338.519Z" fill="black"/>
<path d="M711.012 338.519C711.792 338.519 712.432 339.114 712.505 339.875L712.512 340.019V458.399C712.512 459.228 711.84 459.899 711.012 459.899C710.232 459.899 709.591 459.304 709.519 458.544L709.512 458.399V340.019C709.512 339.191 710.183 338.519 711.012 338.519Z" fill="black"/>
<path d="M711.012 338.519C711.84 338.519 712.512 339.191 712.512 340.019C712.512 340.799 711.917 341.44 711.156 341.512L711.012 341.519H502.155C501.327 341.519 500.655 340.848 500.655 340.019C500.655 339.24 501.25 338.599 502.01 338.526L502.155 338.519H711.012Z" fill="black"/>
<path d="M711.012 362.199C711.84 362.199 712.512 362.87 712.512 363.699C712.512 364.479 711.917 365.119 711.156 365.192L711.012 365.199H502.155C501.327 365.199 500.655 364.527 500.655 363.699C500.655 362.919 501.25 362.278 502.01 362.206L502.155 362.199H711.012Z" fill="black"/>
<path d="M711.012 385.869C711.84 385.869 712.512 386.54 712.512 387.369C712.512 388.148 711.917 388.789 711.156 388.862L711.012 388.869H502.155C501.327 388.869 500.655 388.197 500.655 387.369C500.655 386.589 501.25 385.948 502.01 385.876L502.155 385.869H711.012Z" fill="black"/>
<path d="M711.012 409.549C711.84 409.549 712.512 410.221 712.512 411.049C712.512 411.829 711.917 412.47 711.156 412.543L711.012 412.549H502.155C501.327 412.549 500.655 411.878 500.655 411.049C500.655 410.27 501.25 409.629 502.01 409.556L502.155 409.549H711.012Z" fill="black"/>
<path d="M711.012 433.219C711.84 433.219 712.512 433.891 712.512 434.719C712.512 435.499 711.917 436.14 711.156 436.213L711.012 436.219H502.155C501.327 436.219 500.655 435.548 500.655 434.719C500.655 433.94 501.25 433.299 502.01 433.226L502.155 433.219H711.012Z" fill="black"/>
<path d="M711.012 456.899C711.84 456.899 712.512 457.571 712.512 458.399C712.512 459.179 711.917 459.819 711.156 459.892L711.012 459.899H502.155C501.327 459.899 500.655 459.227 500.655 458.399C500.655 457.619 501.25 456.979 502.01 456.906L502.155 456.899H711.012Z" fill="black"/>
<path fill-rule="evenodd" clip-rule="evenodd" d="M543.925 387.369H585.695V363.699H543.925V387.369Z" fill="black"/>
<path fill-rule="evenodd" clip-rule="evenodd" d="M627.472 411.044H669.242V387.374H627.472V411.044Z" fill="black"/>
<path fill-rule="evenodd" clip-rule="evenodd" d="M502.155 458.389H543.925V434.719H502.155V458.389Z" fill="black"/>
<path fill-rule="evenodd" clip-rule="evenodd" d="M500.534 528.93H712.77V483.004H500.534V528.93Z" fill="black"/>
<path fill-rule="evenodd" clip-rule="evenodd" d="M530.452 501.887V499.14C531.723 499.083 532.613 498.997 533.122 498.884C533.932 498.704 534.592 498.346 535.1 497.808C535.448 497.44 535.713 496.949 535.891 496.334C535.995 495.966 536.047 495.692 536.047 495.513H539.418V516.052H535.282V501.887H530.452Z" fill="white"/>
<path fill-rule="evenodd" clip-rule="evenodd" d="M553.956 511.399C554.343 512.651 555.136 513.276 556.336 513.276C557.534 513.276 558.32 512.651 558.693 511.399C559.066 510.148 559.253 508.342 559.253 505.981C559.253 503.507 559.066 501.675 558.693 500.485C558.32 499.295 557.534 498.7 556.336 498.7C555.136 498.7 554.343 499.295 553.956 500.485C553.568 501.675 553.375 503.507 553.375 505.981C553.375 508.342 553.568 510.148 553.956 511.399ZM561.839 498.133C562.892 499.975 563.418 502.591 563.418 505.981C563.418 509.372 562.892 511.983 561.839 513.815C560.785 515.647 558.951 516.563 556.336 516.563C553.72 516.563 551.885 515.647 550.832 513.815C549.779 511.983 549.253 509.372 549.253 505.981C549.253 502.591 549.779 499.975 550.832 498.133C551.885 496.293 553.72 495.372 556.336 495.372C558.951 495.372 560.785 496.293 561.839 498.133Z" fill="white"/>
<path fill-rule="evenodd" clip-rule="evenodd" d="M570.263 501.887V499.14C571.534 499.083 572.424 498.997 572.934 498.884C573.743 498.704 574.403 498.346 574.911 497.808C575.259 497.44 575.524 496.949 575.703 496.334C575.806 495.966 575.858 495.692 575.858 495.513H579.229V516.052H575.093V501.887H570.263Z" fill="white"/>
<path fill-rule="evenodd" clip-rule="evenodd" d="M593.767 511.399C594.155 512.651 594.948 513.276 596.147 513.276C597.346 513.276 598.131 512.651 598.505 511.399C598.878 510.148 599.065 508.342 599.065 505.981C599.065 503.507 598.878 501.675 598.505 500.485C598.131 499.295 597.346 498.7 596.147 498.7C594.948 498.7 594.155 499.295 593.767 500.485C593.379 501.675 593.186 503.507 593.186 505.981C593.186 508.342 593.379 510.148 593.767 511.399ZM601.65 498.133C602.703 499.975 603.23 502.591 603.23 505.981C603.23 509.372 602.703 511.983 601.65 513.815C600.597 515.647 598.762 516.563 596.147 516.563C593.531 516.563 591.697 515.647 590.643 513.815C589.59 511.983 589.065 509.372 589.065 505.981C589.065 502.591 589.59 499.975 590.643 498.133C591.697 496.293 593.531 495.372 596.147 495.372C598.762 495.372 600.597 496.293 601.65 498.133Z" fill="white"/>
<path fill-rule="evenodd" clip-rule="evenodd" d="M610.073 501.887V499.14C611.344 499.083 612.234 498.997 612.744 498.884C613.553 498.704 614.214 498.346 614.721 497.808C615.07 497.44 615.334 496.949 615.513 496.334C615.617 495.966 615.668 495.692 615.668 495.513H619.039V516.052H614.903V501.887H610.073Z" fill="white"/>
<path fill-rule="evenodd" clip-rule="evenodd" d="M633.578 511.399C633.965 512.651 634.758 513.276 635.957 513.276C637.156 513.276 637.942 512.651 638.315 511.399C638.688 510.148 638.875 508.342 638.875 505.981C638.875 503.507 638.688 501.675 638.315 500.485C637.942 499.295 637.156 498.7 635.957 498.7C634.758 498.7 633.965 499.295 633.578 500.485C633.189 501.675 632.996 503.507 632.996 505.981C632.996 508.342 633.189 510.148 633.578 511.399ZM641.46 498.133C642.513 499.975 643.04 502.591 643.04 505.981C643.04 509.372 642.513 511.983 641.46 513.815C640.407 515.647 638.572 516.563 635.957 516.563C633.342 516.563 631.507 515.647 630.454 513.815C629.4 511.983 628.875 509.372 628.875 505.981C628.875 502.591 629.4 499.975 630.454 498.133C631.507 496.293 633.342 495.372 635.957 495.372C638.572 495.372 640.407 496.293 641.46 498.133Z" fill="white"/>
<path fill-rule="evenodd" clip-rule="evenodd" d="M649.884 501.887V499.14C651.155 499.083 652.046 498.997 652.555 498.884C653.364 498.704 654.025 498.346 654.532 497.808C654.881 497.44 655.145 496.949 655.324 496.334C655.428 495.966 655.48 495.692 655.48 495.513H658.851V516.052H654.714V501.887H649.884Z" fill="white"/>
<path fill-rule="evenodd" clip-rule="evenodd" d="M673.389 511.399C673.776 512.651 674.569 513.276 675.769 513.276C676.967 513.276 677.753 512.651 678.126 511.399C678.499 510.148 678.686 508.342 678.686 505.981C678.686 503.507 678.499 501.675 678.126 500.485C677.753 499.295 676.967 498.7 675.769 498.7C674.569 498.7 673.776 499.295 673.389 500.485C673 501.675 672.807 503.507 672.807 505.981C672.807 508.342 673 510.148 673.389 511.399ZM681.271 498.133C682.324 499.975 682.851 502.591 682.851 505.981C682.851 509.372 682.324 511.983 681.271 513.815C680.218 515.647 678.383 516.563 675.769 516.563C673.153 516.563 671.318 515.647 670.265 513.815C669.212 511.983 668.686 509.372 668.686 505.981C668.686 502.591 669.212 499.975 670.265 498.133C671.318 496.293 673.153 495.372 675.769 495.372C678.383 495.372 680.218 496.293 681.271 498.133Z" fill="white"/>
<path d="M101.984 484.054C102.551 483.364 103.579 483.326 104.197 483.939L104.302 484.054L114.163 496.054C114.689 496.694 114.596 497.639 113.956 498.165C113.356 498.658 112.488 498.608 111.948 498.072L111.845 497.959L103.142 487.368L94.438 497.959C93.872 498.649 92.843 498.687 92.225 498.074L92.121 497.959L83.42 487.369L74.72 497.959C74.153 498.648 73.125 498.687 72.507 498.074L72.402 497.959L63.697 487.368L54.99 497.959C54.424 498.648 53.395 498.687 52.777 498.074L52.673 497.959L43.968 487.368L35.258 497.959C34.692 498.648 33.664 498.687 33.046 498.074L32.941 497.959L23.071 485.959C22.545 485.32 22.637 484.374 23.277 483.848C23.877 483.355 24.745 483.405 25.285 483.94L25.388 484.054L34.099 494.644L42.81 484.054C43.377 483.364 44.405 483.326 45.023 483.939L45.127 484.054L53.831 494.644L62.539 484.054C63.106 483.365 64.134 483.326 64.752 483.939L64.856 484.054L73.56 494.644L82.262 484.054C82.828 483.364 83.857 483.326 84.475 483.939L84.58 484.054L93.279 494.644L101.984 484.054Z" fill="black"/>
<path d="M23.277 508.408C23.877 507.914 24.745 507.964 25.285 508.5L25.388 508.613L34.099 519.204L42.81 508.613C43.377 507.924 44.405 507.886 45.023 508.499L45.127 508.614L53.832 519.204L62.539 508.613C63.106 507.924 64.134 507.886 64.752 508.499L64.856 508.614L73.56 519.203L82.262 508.614C82.828 507.924 83.857 507.886 84.475 508.499L84.58 508.614L93.279 519.203L101.984 508.614C102.551 507.924 103.579 507.886 104.197 508.499L104.302 508.614L114.163 520.614C114.689 521.254 114.596 522.199 113.956 522.725C113.356 523.218 112.488 523.168 111.948 522.632L111.845 522.518L103.142 511.928L94.438 522.518C93.872 523.208 92.843 523.246 92.225 522.633L92.121 522.518L83.42 511.929L74.72 522.518C74.153 523.208 73.125 523.246 72.507 522.633L72.402 522.518L63.697 511.928L54.99 522.519C54.424 523.208 53.395 523.246 52.777 522.633L52.673 522.518L43.968 511.928L35.258 522.519C34.692 523.208 33.664 523.246 33.046 522.634L32.941 522.519L23.071 510.519C22.545 509.879 22.637 508.934 23.277 508.408Z" fill="black"/>
<path d="M547.685 582.797C548.464 582.797 549.105 583.392 549.178 584.153L549.185 584.297V614.026C549.185 614.854 548.513 615.526 547.685 615.526C546.905 615.526 546.264 614.931 546.192 614.17L546.185 614.026V584.297C546.185 583.469 546.856 582.797 547.685 582.797Z" fill="black"/>
<path d="M556.342 595.734C556.742 595.009 557.654 594.745 558.38 595.146C559.062 595.522 559.336 596.353 559.032 597.054L558.968 597.184L549.295 614.705L549.16 614.968L548.99 615.268C548.581 615.989 547.666 616.242 546.945 615.834C546.267 615.45 546.003 614.616 546.314 613.918L546.38 613.789L546.516 613.553L546.643 613.304L556.342 595.734Z" fill="black"/>
<path d="M532.725 596.079C533.335 595.597 534.202 595.665 534.731 596.211L534.832 596.327L548.694 613.887L548.854 614.086C549.373 614.732 549.27 615.676 548.625 616.195C548.019 616.682 547.152 616.622 546.618 616.081L546.516 615.966L546.405 615.825L546.337 615.745L532.477 598.185C531.964 597.535 532.075 596.592 532.725 596.079Z" fill="black"/>
<path d="M57.61 582.253C57.774 581.441 58.566 580.916 59.378 581.081C60.142 581.236 60.652 581.946 60.572 582.706L60.55 582.849L54.295 613.666L54.296 614.026C54.296 614.806 53.701 615.446 52.94 615.519L52.796 615.526C52.016 615.526 51.375 614.931 51.303 614.17L51.296 614.026V613.516L51.303 613.366L51.326 613.218L57.61 582.253Z" fill="black"/>
<path d="M64.394 602.489C65.027 601.955 65.973 602.034 66.508 602.667C67.01 603.26 66.971 604.129 66.443 604.676L66.331 604.78L54.264 614.979L54.101 615.268C53.716 615.947 52.883 616.211 52.185 615.899L52.056 615.834C51.378 615.45 51.114 614.616 51.425 613.918L51.491 613.789L51.624 613.558L51.724 613.358C51.792 613.222 51.881 613.097 51.986 612.987L52.097 612.883L64.394 602.489Z" fill="black"/>
<path d="M37.836 596.079C38.446 595.597 39.313 595.665 39.842 596.211L39.943 596.327L53.805 613.887L53.965 614.086C54.484 614.732 54.381 615.676 53.735 616.195C53.13 616.682 52.263 616.622 51.729 616.081L51.627 615.966L51.516 615.825L51.448 615.745L37.588 598.185C37.075 597.535 37.186 596.592 37.836 596.079Z" fill="black"/>
<path d="M696.865 82.3337C697.358 81.6677 698.297 81.5267 698.963 82.0197C699.59 82.4837 699.752 83.3427 699.358 83.9977L699.277 84.1177L677.574 113.463C677.082 114.129 676.143 114.269 675.476 113.777C674.85 113.313 674.688 112.454 675.082 111.799L675.162 111.679L696.865 82.3337Z" fill="black"/>
<path d="M683.592 141.27C683.866 140.54 684.649 140.15 685.386 140.35L685.524 140.395L719.684 153.25C720.459 153.541 720.851 154.406 720.559 155.182C720.285 155.912 719.502 156.302 718.765 156.102L718.627 156.057L684.467 143.202C683.692 142.911 683.3 142.046 683.592 141.27Z" fill="black"/>
<path d="M724.399 112.716C725.194 112.481 726.028 112.935 726.263 113.73C726.484 114.478 726.094 115.261 725.385 115.546L725.249 115.593L686.931 126.904C686.136 127.139 685.302 126.685 685.068 125.89C684.847 125.142 685.236 124.359 685.945 124.074L686.081 124.027L724.399 112.716Z" fill="black"/>
<path d="M56.323 290.123C57.142 290 57.906 290.565 58.029 291.385C58.144 292.156 57.651 292.877 56.909 293.062L56.767 293.09L20.671 298.493C19.852 298.616 19.088 298.051 18.966 297.232C18.85 296.461 19.344 295.739 20.085 295.554L20.227 295.526L56.323 290.123Z" fill="black"/>
<path d="M55.429 230.228C56.139 229.906 56.968 230.184 57.348 230.847L57.414 230.975L72.478 264.22C72.82 264.975 72.485 265.864 71.731 266.206C71.021 266.527 70.191 266.25 69.811 265.587L69.745 265.459L54.681 232.214C54.339 231.459 54.674 230.57 55.429 230.228Z" fill="black"/>
<path d="M22.085 255.506C22.458 254.821 23.286 254.543 23.989 254.842L24.119 254.905L59.211 274.002C59.939 274.398 60.208 275.309 59.812 276.037C59.439 276.722 58.61 277 57.908 276.701L57.777 276.638L22.685 257.541C21.958 257.145 21.689 256.234 22.085 255.506Z" fill="black"/>
<path fill-rule="evenodd" clip-rule="evenodd" d="M205.059 423.065C205.059 424.671 203.757 425.973 202.151 425.973C200.544 425.973 199.243 424.671 199.243 423.065C199.243 421.459 200.544 420.157 202.151 420.157C203.757 420.157 205.059 421.459 205.059 423.065Z" fill="black"/>
<path fill-rule="evenodd" clip-rule="evenodd" d="M249.155 404.779C249.145 405.349 249.105 405.899 249.015 406.429C247.365 406.739 245.595 406.899 243.745 406.899C235.835 406.899 229.245 403.899 227.755 399.909C229.425 398.659 231.395 397.399 233.945 396.109C241.085 392.509 243.525 393.409 244.345 393.8C247.905 395.479 249.235 400.919 249.155 404.779Z" fill="black"/>
<path fill-rule="evenodd" clip-rule="evenodd" d="M178.718 615.029H168.525C168.613 614.154 168.711 613.279 168.809 612.404C170.592 610.611 172.462 608.576 174.365 606.268C175.656 607.286 176.914 608.697 177.767 610.633C178.456 612.218 178.697 613.739 178.718 615.029Z" fill="black"/>
<path fill-rule="evenodd" clip-rule="evenodd" d="M206.53 615.029H196.337C196.425 614.154 196.523 613.279 196.621 612.404C198.404 610.611 200.274 608.576 202.177 606.268C203.467 607.286 204.725 608.697 205.578 610.633C206.268 612.218 206.508 613.739 206.53 615.029Z" fill="black"/>
<path fill-rule="evenodd" clip-rule="evenodd" d="M234.882 615.029H224.689C226.728 611.137 227.934 608.599 229.52 605.426C230.811 606.444 233.077 608.697 233.93 610.633C234.619 612.218 234.86 613.739 234.882 615.029Z" fill="black"/>
<path fill-rule="evenodd" clip-rule="evenodd" d="M392.711 101.561C390.909 101.143 389.015 100.642 387.044 100.041C385.618 99.6057 384.257 99.1497 382.961 98.6827C383.107 100.342 383.715 103.091 384.904 105.285C386.878 108.923 389.461 110.553 390.856 111.887C391.782 107.068 391.787 105.822 392.711 101.561Z" fill="black"/>
<path fill-rule="evenodd" clip-rule="evenodd" d="M383.585 105.999C382.435 103.876 381.664 101.05 381.467 98.8138C381.371 97.7228 382.439 96.8997 383.47 97.2717C384.789 97.7467 386.124 98.1918 387.482 98.6058C389.35 99.1758 391.207 99.6717 393.05 100.099C393.849 100.285 394.351 101.077 394.177 101.879C393.812 103.563 393.586 104.779 393.324 106.388L392.909 108.954C392.814 109.527 392.736 109.98 392.654 110.436L392.329 112.17C392.105 113.336 390.678 113.792 389.82 112.971C389.7 112.857 389.566 112.735 389.393 112.585L388.167 111.539C387.302 110.791 386.608 110.124 385.926 109.35C385.04 108.345 384.262 107.247 383.585 105.999ZM385.556 101.148L384.865 100.922L384.988 101.391C385.298 102.519 385.721 103.643 386.223 104.569C386.788 105.612 387.436 106.526 388.176 107.366C388.416 107.639 388.804 108.022 389.24 108.434L389.858 109.008L390.452 105.368C390.599 104.489 390.741 103.701 390.909 102.857L390.944 102.676L390.075 102.456C389.307 102.256 388.537 102.044 387.766 101.82L386.607 101.475C386.255 101.368 385.905 101.259 385.556 101.148Z" fill="black"/>
</g>
<defs>
<clipPath id="clip0_17_247">
<rect width="740.95" height="624.888" fill="white"/>
</clipPath>
</defs>
</svg>
