<svg width="835" height="720" viewBox="0 0 835 720" fill="none" xmlns="http://www.w3.org/2000/svg">
<g clip-path="url(#clip0_21_66)">
<path fill-rule="evenodd" clip-rule="evenodd" d="M613.043 24.4085C524.203 -36.8327 407.126 19.0045 351.547 149.124L351.506 149.221C348.89 155.348 344.446 160.069 338.586 162.875C310.255 176.438 282.869 194.579 257.697 217.244C140.899 322.409 115.921 485.076 201.904 580.569C287.887 676.063 452.272 668.223 569.07 563.059C628.993 509.104 664.748 440.013 673.748 372.622C674.11 369.911 674.769 367.342 675.732 364.968C728.014 236.1 700.538 84.7217 613.043 24.4085Z" fill="black" fill-opacity="0.04"/>
<path fill-rule="evenodd" clip-rule="evenodd" d="M358.069 195.61C358.069 195.61 350.865 206.549 347.919 220.31C346.661 226.187 344.994 233.613 348.355 241.681C349.166 243.628 353.318 253.953 363.163 256.701C375.493 260.145 386.583 248.888 388.9 246.536C396.103 239.224 398.096 230.941 399.962 223.181C400.906 219.26 404.74 203.318 400.125 185.503C399.141 181.707 397.568 177.027 397.089 169.771C396.7 163.894 396.421 158.754 399.021 153.763C401.482 149.035 403.911 149.464 410.768 143.137C414.6 139.603 420.787 133.894 424.255 125.426C426.739 119.359 424.886 119.061 428.157 108.359C430.566 100.476 431.77 96.534 434.982 93.7306C440.03 89.3269 445.262 90.5955 447.417 86.4164C448.66 84.0048 446.435 82.893 446.745 77.3324C446.901 74.5429 447.068 71.5138 449.269 69.0504C451.027 67.0812 454.217 65.3206 457.002 66.1111C459.343 66.7747 459.569 68.7185 461.489 69.7463C464.589 71.4055 468.668 68.9202 474.48 65.482C480.467 61.9389 480.475 61.8617 485.033 59.6241C491.188 56.6031 493.172 56.6561 494.895 54.6385C498.751 50.1207 493.9 38.1631 487.863 30.4572C477.556 17.299 459.348 10.8604 442.588 12.106C419.389 13.8308 405.484 29.79 402.482 33.4379C392.631 45.4151 390.111 58.6932 388.83 65.437C385.603 82.4332 390.573 86.0592 385.843 101.275C383.999 107.207 380.916 117.126 372.617 126.448C366.253 133.595 360.792 135.934 357.258 144.793C356.341 147.092 354.448 151.99 354.915 158.217C355.215 162.206 356.612 166.006 359.404 173.605C362.014 180.708 362.998 182.043 362.823 185.146C362.579 189.489 360.355 192.138 358.069 195.61Z" fill="black"/>
<path d="M451.178 116.767C451.374 115.832 452.29 115.233 453.224 115.429C454.103 115.613 454.685 116.435 454.587 117.311L454.561 117.474L451.623 131.509L450.412 137.282C450.294 137.842 449.907 138.307 449.378 138.525C443.887 140.783 437.793 142.099 430.868 141.8C425.645 141.573 420.773 140.426 416.267 138.585C415.383 138.223 414.959 137.215 415.321 136.331C415.682 135.447 416.691 135.023 417.575 135.385C421.727 137.082 426.212 138.137 431.018 138.345C436.898 138.6 442.134 137.587 446.886 135.793L447.22 135.663L451.178 116.767Z" fill="black"/>
<path d="M492.275 47.0202C493.223 46.9119 494.08 47.5928 494.188 48.5411C496.431 68.1874 494.238 85.3069 488.285 99.1426C483.366 110.561 475.053 118.367 465.153 120.157C464.027 120.364 462.73 120.422 461.299 120.344C458.912 120.227 456.101 119.741 453.079 118.963L447.432 117.468C447.049 117.365 446.699 117.269 446.357 117.175L445.452 116.921C444.202 116.565 442.995 116.2 441.594 115.753C440.685 115.462 440.182 114.49 440.474 113.58C440.764 112.671 441.737 112.169 442.646 112.46L443.956 112.872C444.587 113.067 445.19 113.248 445.793 113.423L446.833 113.719L448.626 114.21L453.317 115.451C456.375 116.272 459.189 116.779 461.477 116.892C462.663 116.957 463.694 116.911 464.533 116.756C473.178 115.193 480.615 108.209 485.11 97.7761C490.815 84.5153 492.93 68.0019 490.754 48.9328C490.645 47.9846 491.326 47.1285 492.275 47.0202Z" fill="black"/>
<path d="M389.122 244.28C390.062 244.118 390.958 244.748 391.12 245.688C393.514 259.53 395.532 273.586 397.148 287.857C400.95 321.559 402.285 354.547 401.483 386.804L401.444 388.264L402.718 387.201C404.642 385.612 406.61 384.048 408.625 382.508L410.143 381.358C413.024 379.201 415.924 377.149 418.836 375.202C419.63 374.671 420.703 374.884 421.234 375.678C421.764 376.472 421.551 377.545 420.757 378.076C417.896 379.988 415.047 382.005 412.216 384.125C408.213 387.125 404.391 390.227 400.74 393.419C399.603 394.413 397.826 393.572 397.876 392.062C398.966 358.261 397.706 323.648 393.714 288.245C392.105 274.042 390.097 260.053 387.714 246.278C387.552 245.337 388.182 244.443 389.122 244.28Z" fill="black"/>
<path d="M433.414 233.701C434.367 233.637 435.19 234.359 435.253 235.31C437.543 269.756 442.044 304.615 449.067 339.897C452.294 356.118 455.986 372.068 460.113 387.769C460.363 388.72 459.771 389.675 458.833 389.892L458.674 389.92L431.335 393.629C430.507 393.742 429.717 393.246 429.459 392.452C424.888 378.394 421.071 363.755 418.145 348.457C415.485 334.55 413.708 320.871 412.699 307.396C412.627 306.444 413.341 305.615 414.292 305.543C415.245 305.472 416.074 306.186 416.145 307.138C417.145 320.484 418.905 334.034 421.541 347.807C424.3 362.238 427.861 376.077 432.104 389.389L432.304 390.009L456.278 386.757L455.889 385.266C452.39 371.719 449.213 357.988 446.378 344.059L445.676 340.573C438.625 305.138 434.103 270.131 431.805 235.54C431.741 234.588 432.461 233.764 433.414 233.701Z" fill="black"/>
<path d="M447.386 135.618C448.216 135.148 449.271 135.441 449.741 136.271C452.833 141.736 455.922 146.556 459.084 151.033C460.482 153.007 461.768 154.731 463.093 156.418C463.408 156.819 463.727 157.22 464.054 157.625L464.55 158.237C465.754 159.715 475.467 171.01 481.455 178.191L489.425 187.835C496.455 196.389 498.337 198.897 499.385 200.905C500.363 202.782 501.156 204.591 501.793 206.399L502.025 207.078C504.119 213.414 504.405 216.717 503.878 232.566L503.537 242.187C503.481 243.886 503.433 245.491 503.391 247.114L503.335 249.842L503.322 250.756C503.086 268.493 503.544 289.658 505.265 310.062C506.259 321.817 507.743 332.821 509.554 343.02C509.718 343.944 509.113 344.831 508.192 345.017C500.832 346.493 493.356 348.312 485.795 350.49C477.194 352.969 468.887 355.801 460.861 358.942C459.972 359.29 458.97 358.851 458.622 357.963C458.274 357.073 458.713 356.071 459.601 355.723C467.725 352.544 476.132 349.677 484.838 347.168C491.795 345.164 498.683 343.46 505.477 342.044L505.859 341.964L505.584 340.344C504.104 331.53 502.871 322.144 501.983 312.219L501.821 310.352C500.14 290.422 499.657 269.799 499.847 252.293L499.915 247.842L499.979 245.396C500.033 243.492 500.098 241.563 500.175 239.427L500.421 232.531C500.935 217.132 500.666 213.981 498.742 208.163C498.206 206.541 497.531 204.917 496.69 203.231L496.205 202.288C495.201 200.464 492.972 197.578 485.557 188.573L478.403 179.928C472.797 173.219 464.259 163.277 462.198 160.817L461.87 160.42C461.355 159.789 460.861 159.171 460.376 158.554C459.014 156.822 457.694 155.051 456.261 153.029C453.036 148.46 449.885 143.544 446.732 137.974C446.262 137.143 446.555 136.088 447.386 135.618Z" fill="black"/>
<path d="M500.371 343.204C501.269 343.204 502.007 343.89 502.092 344.766L502.1 344.933V530.719L502.094 530.861L502.075 531.002L477.353 679.674C477.196 680.615 476.306 681.251 475.365 681.095C474.479 680.948 473.863 680.151 473.924 679.272L473.943 679.107L498.642 530.58L498.643 344.933C498.643 344.034 499.329 343.295 500.204 343.212L500.371 343.204Z" fill="black"/>
<path d="M436.269 426.762C437.163 426.678 437.963 427.291 438.129 428.156L438.152 428.321L448.064 533.792L448.071 534.005L443.116 702.056C443.087 703.01 442.291 703.76 441.337 703.732C440.439 703.706 439.721 702.998 439.664 702.12L439.66 701.953L444.612 534.004L434.71 428.645C434.626 427.751 435.24 426.951 436.105 426.785L436.269 426.762Z" fill="black"/>
<path fill-rule="evenodd" clip-rule="evenodd" d="M436.432 679.391H486.533L527.577 689.217C533.38 690.605 537.47 695.792 537.47 701.758V708.651L436.432 707.437V679.391Z" fill="black"/>
<path fill-rule="evenodd" clip-rule="evenodd" d="M356.351 625.003L332.201 651.365L399.671 708.293H420.17V702.235L404.595 691.228L389.956 650.592L356.351 625.003Z" fill="black"/>
<path d="M444.032 522.57C444.632 521.826 445.72 521.712 446.463 522.313C447.158 522.875 447.303 523.867 446.823 524.6L446.72 524.743L360.902 630.852C360.302 631.594 359.213 631.709 358.471 631.109C357.775 630.546 357.631 629.554 358.11 628.821L358.214 628.679L444.032 522.57Z" fill="black"/>
<path d="M443.351 595.397C444.069 594.768 445.16 594.838 445.79 595.555C446.381 596.227 446.356 597.229 445.76 597.871L445.633 597.994L386.395 650.057C385.678 650.687 384.586 650.617 383.956 649.899C383.365 649.227 383.39 648.226 383.986 647.584L384.112 647.46L443.351 595.397Z" fill="black"/>
<path d="M454.122 387.19C454.948 386.71 456.005 386.992 456.485 387.818L457.659 389.857C458.471 391.279 459.351 392.836 460.337 394.596L461.529 396.753C470.157 412.459 471.876 417.746 470.536 421.493C467.736 429.329 456.175 433.901 445.886 432.711C443.459 432.432 441.473 432.044 439.142 431.171C435.539 429.82 432.636 427.707 430.806 424.631C428.782 421.234 428.665 417.556 430.228 408.243C431.155 402.674 432.383 396.936 434.045 390.846C434.297 389.924 435.247 389.381 436.168 389.632C437.089 389.884 437.631 390.834 437.38 391.755C435.875 397.269 434.733 402.485 433.853 407.549L433.638 408.812C432.201 417.372 432.296 420.379 433.776 422.862C435.157 425.183 437.428 426.837 440.355 427.933C442.363 428.685 444.11 429.028 446.282 429.276C455.153 430.304 465.126 426.36 467.281 420.33L467.336 420.159C468.119 417.54 466.25 412.356 457.318 396.28L455.596 393.223C454.842 391.891 454.149 390.682 453.495 389.552C453.015 388.727 453.297 387.669 454.122 387.19Z" fill="black"/>
<path d="M409.873 381.699C410.783 381.415 411.752 381.923 412.037 382.834C414.563 390.938 417.699 398.998 421.554 407.016C426.497 417.312 432.224 426.729 438.569 435.361C439.134 436.131 438.969 437.213 438.199 437.777C437.431 438.343 436.349 438.177 435.783 437.409C429.316 428.607 423.477 419.008 418.439 408.514C414.509 400.34 411.312 392.123 408.737 383.863C408.453 382.952 408.962 381.983 409.873 381.699Z" fill="black"/>
<path d="M430.06 414.319C430.87 413.813 431.936 414.058 432.443 414.867C432.949 415.676 432.703 416.743 431.894 417.249C430.6 418.059 429.333 418.866 428.089 419.674L426.851 420.482C400.774 437.485 376.827 458.174 356.508 481.285L354.729 483.325C352.338 486.085 350.002 488.834 346.971 492.453L337.153 504.226C326.837 516.56 320.706 523.519 313.435 530.922C303.434 541.105 293.702 549.305 283.366 555.951L281.432 557.178C260.358 570.225 231.755 575.176 209.347 568.98C208.427 568.727 207.888 567.774 208.141 566.855C208.396 565.935 209.348 565.395 210.268 565.649C231.71 571.577 259.329 566.797 279.59 554.253L280.476 553.693C299.214 541.879 312.34 528.587 336.677 499.403L343.907 490.728C347.436 486.511 350.024 483.467 352.775 480.303C373.172 456.857 397.26 435.842 423.524 418.531L424.958 417.59C426.613 416.502 428.313 415.412 430.06 414.319Z" fill="black"/>
<path d="M214.971 519.2C215.922 519.123 216.757 519.831 216.834 520.782C219.167 549.416 212.83 574.402 196.668 593.823L195.605 595.086C191.903 599.444 188.272 603.223 181.897 609.462L175.887 615.308C159.203 631.579 152.291 639.902 146.703 652.337C138.993 669.525 139.174 689.471 146.671 707.992C147.028 708.877 146.602 709.885 145.717 710.242C144.832 710.6 143.825 710.174 143.467 709.289C135.628 689.925 135.438 669.004 143.55 650.921L143.977 649.981C149.864 637.238 157.245 628.585 174.709 611.63L177.573 608.851C185.737 600.908 189.655 596.845 194.011 591.611C209.543 572.947 215.653 548.855 213.389 521.064C213.311 520.112 214.02 519.278 214.971 519.2Z" fill="black"/>
<path d="M268.775 454.855C275.733 451.347 279.647 450.917 282.273 452.175C286.651 454.24 288.932 460.342 288.806 466.419C288.792 467.202 288.735 467.909 288.633 468.492C288.509 469.543 288.276 470.57 287.939 471.612C286.442 476.223 283.459 479.73 277.721 484.57L273.081 488.418L272.068 489.276C265.305 495.084 261.702 499.688 259.819 506.084L259.684 506.555C258.746 509.943 259.093 513.809 261.441 528.079L270.366 581.639L270.84 584.3C275.169 608.884 276.963 626.288 275.819 647.082C274.734 666.64 270.569 687.078 261.64 709.286C261.282 710.171 260.276 710.601 259.39 710.244C258.506 709.887 258.076 708.881 258.432 707.995C267.213 686.16 271.303 666.091 272.367 646.89C273.473 626.791 271.782 609.847 267.66 586.182L266.421 579.078L257.752 526.936C255.571 513.547 255.27 509.676 256.311 505.792L256.353 505.632C258.468 498.013 262.594 492.776 270.338 486.209L272.347 484.536C273.513 483.571 274.969 482.368 275.493 481.927L276.397 481.155C281.078 477.107 283.48 474.151 284.65 470.545C284.921 469.711 285.104 468.904 285.213 468.001C285.296 467.516 285.339 466.979 285.35 466.353C285.451 461.485 283.64 456.643 280.789 455.298C280.264 455.046 279.643 454.933 278.464 455.062C276.524 455.275 273.853 456.167 270.333 457.941C267.899 459.173 265.843 460.424 263.96 461.791L262.567 462.831C261.893 463.348 261.316 463.824 260.386 464.633L257.923 466.805C254.813 469.568 252.718 471.153 249.746 472.779C247.054 474.253 244.876 475.039 242.349 475.543L241.839 475.64C241.336 475.731 240.851 475.81 240.165 475.911L238.949 476.092C235.931 476.546 234.549 476.836 232.117 477.582C223.341 480.267 215.663 485.468 209.097 492.334C206.682 494.859 204.553 497.473 202.709 500.073C201.468 501.821 200.551 503.276 199.832 504.527C195.719 511.643 192.862 520.311 191.824 528.077C190.918 534.857 191.664 539.811 193.081 540.479C193.962 540.895 196.346 539.657 199.47 536.84C200.556 535.859 201.705 534.722 202.916 533.441L203.732 532.567C204.972 531.225 206.12 529.903 207.884 527.833C210.025 525.321 211.948 522.692 213.651 519.998C215.885 516.47 217.644 513.007 219.152 509.422C219.522 508.543 220.536 508.129 221.415 508.499C222.295 508.869 222.709 509.883 222.339 510.762C220.76 514.514 218.917 518.145 216.572 521.846C214.785 524.673 212.765 527.435 210.516 530.074L209.113 531.713C207.721 533.328 206.686 534.484 205.429 535.815C204.159 537.159 202.946 538.358 201.785 539.406L201.15 539.969C197.273 543.342 194.177 544.819 191.606 543.605C185.004 540.491 187.845 518.706 196.57 503.268L196.836 502.802C197.604 501.465 198.58 499.917 199.89 498.071C201.828 495.341 204.061 492.598 206.599 489.945C213.545 482.681 221.709 477.153 231.104 474.277L231.826 474.059C233.916 473.444 235.384 473.141 237.965 472.745L240.399 472.378C240.697 472.331 240.957 472.287 241.221 472.239C243.613 471.804 245.548 471.136 248.087 469.747C250.637 468.351 252.481 466.986 255.148 464.643L258.163 461.985C259.381 460.926 260.03 460.407 261.05 459.644L261.385 459.394C263.561 457.765 265.938 456.291 268.775 454.855Z" fill="black"/>
<path d="M250.191 623.277C251.144 623.217 251.964 623.941 252.024 624.894C252.749 636.41 252.006 648.299 249.28 660.611C245.088 679.505 237.106 695.705 226.767 709.669C226.199 710.436 225.116 710.598 224.35 710.03C223.582 709.462 223.421 708.379 223.989 707.613C234.057 694.013 241.827 678.245 245.905 659.863C248.556 647.888 249.28 636.319 248.575 625.11C248.515 624.157 249.238 623.337 250.191 623.277Z" fill="black"/>
<path d="M220.132 639.543C221.087 639.516 221.882 640.267 221.908 641.223C222.217 652.131 220.705 663.377 216.385 675C212.823 684.579 207.79 693.049 201.661 700.511C199.731 702.852 197.746 705.035 195.691 707.105C194.715 708.068 193.738 709.001 192.757 709.909C192.055 710.558 190.962 710.515 190.315 709.814C189.666 709.113 189.708 708.02 190.409 707.372C191.363 706.489 192.312 705.583 193.249 704.656C195.221 702.673 197.133 700.569 198.993 698.315C204.885 691.14 209.722 682.998 213.146 673.794C217.297 662.627 218.75 651.813 218.454 641.319C218.426 640.365 219.178 639.57 220.132 639.543Z" fill="black"/>
<path d="M848.076 706.912C849.031 706.912 849.805 707.685 849.805 708.641C849.805 709.539 849.119 710.277 848.243 710.361L848.076 710.369H6.88432C5.93029 710.369 5.15601 709.595 5.15601 708.641C5.15601 707.742 5.84157 707.003 6.7184 706.92L6.88432 706.912H848.076Z" fill="black"/>
<path fill-rule="evenodd" clip-rule="evenodd" d="M89.5356 326.002L150.889 279.273C151.508 278.802 152.364 278.802 152.983 279.273L214.337 326.002C215.246 326.694 215.246 328.061 214.337 328.752L152.983 375.481C152.364 375.952 151.508 375.952 150.889 375.481L89.5356 328.752C88.6265 328.061 88.6265 326.694 89.5356 326.002ZM210.438 327.376L151.936 282.819L93.4335 327.376L151.936 371.933L210.438 327.376Z" fill="black"/>
<path d="M213.29 325.649C214.188 325.649 214.927 326.334 215.011 327.21L215.018 327.378V395.354C215.018 395.834 214.82 396.289 214.474 396.614L214.337 396.729L152.983 443.458C152.413 443.892 151.638 443.926 151.036 443.558L150.889 443.458L89.5356 396.729C89.1542 396.438 88.9123 396.004 88.8627 395.532L88.8535 395.354V327.378C88.8535 326.422 89.6278 325.649 90.5818 325.649C91.4805 325.649 92.2191 326.334 92.3032 327.21L92.3101 327.378V394.497L151.936 439.91L211.561 394.497V327.378C211.561 326.479 212.247 325.74 213.124 325.656L213.29 325.649Z" fill="black"/>
<path d="M151.937 372.377C152.834 372.377 153.573 373.063 153.657 373.939L153.665 374.105V442.082C153.665 443.037 152.891 443.81 151.937 443.81C151.038 443.81 150.3 443.125 150.215 442.249L150.208 442.082V374.105C150.208 373.151 150.982 372.377 151.937 372.377Z" fill="black"/>
<path fill-rule="evenodd" clip-rule="evenodd" d="M151.937 374.105L213.291 327.376V395.353L151.937 442.082V374.105Z" fill="black"/>
<path fill-rule="evenodd" clip-rule="evenodd" d="M639.528 150.764L700.882 104.035C701.501 103.564 702.358 103.564 702.976 104.035L764.33 150.764C765.238 151.456 765.238 152.823 764.33 153.514L702.976 200.243C702.358 200.714 701.501 200.714 700.882 200.243L639.528 153.514C638.62 152.823 638.62 151.456 639.528 150.764ZM760.431 152.138L701.929 107.581L643.427 152.138L701.929 196.695L760.431 152.138Z" fill="black"/>
<path fill-rule="evenodd" clip-rule="evenodd" d="M640.575 152.139L701.929 198.868L763.283 152.139L701.929 105.411L640.575 152.139Z" fill="black"/>
<path d="M763.283 150.411C764.182 150.411 764.92 151.096 765.003 151.972L765.011 152.139V220.116C765.011 220.596 764.812 221.051 764.466 221.376L764.33 221.491L702.976 268.22C702.405 268.654 701.631 268.688 701.029 268.32L700.882 268.22L639.528 221.491C639.147 221.2 638.906 220.766 638.856 220.294L638.847 220.116V152.139C638.847 151.184 639.621 150.411 640.575 150.411C641.474 150.411 642.213 151.096 642.296 151.972L642.304 152.139V219.259L701.929 264.672L761.555 219.259V152.139C761.555 151.241 762.24 150.502 763.117 150.418L763.283 150.411Z" fill="black"/>
<path d="M701.929 197.139C702.828 197.139 703.567 197.824 703.649 198.701L703.658 198.867V266.844C703.658 267.799 702.884 268.572 701.929 268.572C701.032 268.572 700.293 267.888 700.209 267.011L700.201 266.844V198.867C700.201 197.913 700.975 197.139 701.929 197.139Z" fill="black"/>
<path d="M562.027 238.529C562.766 237.924 563.854 238.031 564.459 238.769C565.027 239.461 564.967 240.462 564.35 241.083L564.219 241.202L547.046 255.287C543.028 258.583 537.561 259.463 532.724 257.618L532.354 257.471L518.514 251.754L501.646 252.239C500.748 252.265 499.99 251.601 499.882 250.727L499.869 250.561C499.842 249.663 500.507 248.905 501.381 248.797L501.547 248.784L518.784 248.289C518.966 248.283 519.148 248.307 519.322 248.358L519.493 248.419L533.674 254.277C537.309 255.778 541.458 255.223 544.565 252.844L544.853 252.614L562.027 238.529Z" fill="black"/>
<path d="M530.733 220.161C533.306 218.914 536.291 218.865 538.894 220.015L539.218 220.165L552.565 226.65C553.423 227.068 553.782 228.101 553.365 228.961C552.972 229.768 552.033 230.132 551.208 229.825L551.054 229.759L537.707 223.273C536.078 222.482 534.191 222.437 532.532 223.14L532.242 223.271L515.29 231.499C515.113 231.585 514.924 231.639 514.73 231.661L514.535 231.673H502.253C501.298 231.673 500.524 230.899 500.524 229.945C500.524 229.046 501.209 228.308 502.086 228.224L502.253 228.216L514.138 228.215L530.733 220.161Z" fill="black"/>
<path d="M594.301 205.148C595.079 204.595 596.157 204.777 596.711 205.555C597.231 206.286 597.101 207.285 596.435 207.861L596.304 207.965L538.662 248.961C537.885 249.514 536.806 249.332 536.253 248.554C535.732 247.821 535.863 246.822 536.528 246.246L536.66 246.143L594.301 205.148Z" fill="black"/>
<path d="M578.116 105.361C601.187 92.6407 623.296 91.8525 644.377 105.204C645.184 105.715 645.424 106.783 644.913 107.589C644.403 108.396 643.335 108.636 642.528 108.125C622.593 95.4993 601.818 96.2402 579.785 108.389C561.844 118.281 543.991 135.013 524.065 158.851C523.452 159.584 522.362 159.682 521.63 159.069C520.898 158.457 520.801 157.367 521.413 156.634L523.138 154.583C542.627 131.53 560.243 115.216 578.116 105.361Z" fill="black"/>
<path d="M372.636 311.879C373.435 311.356 374.506 311.578 375.029 312.376C375.554 313.174 375.331 314.246 374.533 314.769C336.541 339.708 294.76 354.565 255.368 355.276C254.414 355.293 253.626 354.534 253.609 353.579C253.591 352.625 254.352 351.838 255.306 351.82C293.988 351.122 335.155 336.483 372.636 311.879Z" fill="black"/>
<path d="M144.782 90.1542C145.626 89.7106 146.671 90.0344 147.116 90.8789C147.561 91.7235 147.236 92.7685 146.391 93.2133C93.6051 120.993 74.1075 190.42 99.1081 249.143C99.4814 250.022 99.0735 251.037 98.1944 251.41C97.3164 251.785 96.3013 251.376 95.928 250.496C70.2591 190.205 90.3063 118.823 144.782 90.1542Z" fill="black"/>
<path d="M578.586 390.044C579.484 390.044 580.223 390.729 580.307 391.606L580.315 391.772V528.17C580.315 529.126 579.54 529.899 578.586 529.899C577.688 529.899 576.949 529.213 576.865 528.337L576.858 528.17V391.772C576.858 390.818 577.631 390.044 578.586 390.044Z" fill="black"/>
<path d="M626.714 390.044C627.613 390.044 628.35 390.729 628.434 391.606L628.442 391.772V528.17C628.442 529.126 627.668 529.899 626.714 529.899C625.815 529.899 625.078 529.213 624.994 528.337L624.986 528.17V391.772C624.986 390.818 625.76 390.044 626.714 390.044Z" fill="black"/>
<path d="M674.841 390.044C675.739 390.044 676.478 390.729 676.562 391.606L676.569 391.772V528.17C676.569 529.126 675.796 529.899 674.841 529.899C673.943 529.899 673.205 529.213 673.12 528.337L673.112 528.17V391.772C673.112 390.818 673.887 390.044 674.841 390.044Z" fill="black"/>
<path d="M722.979 390.044C723.877 390.044 724.615 390.729 724.699 391.606L724.707 391.772V528.17C724.707 529.126 723.933 529.899 722.979 529.899C722.08 529.899 721.342 529.213 721.258 528.337L721.25 528.17V391.772C721.25 390.818 722.025 390.044 722.979 390.044Z" fill="black"/>
<path d="M771.105 390.044C772.004 390.044 772.743 390.729 772.825 391.606L772.834 391.772V528.17C772.834 529.126 772.06 529.899 771.105 529.899C770.208 529.899 769.469 529.213 769.385 528.337L769.377 528.17V391.772C769.377 390.818 770.151 390.044 771.105 390.044Z" fill="black"/>
<path d="M819.233 390.044C820.132 390.044 820.869 390.729 820.953 391.606L820.961 391.772V528.17C820.961 529.126 820.187 529.899 819.233 529.899C818.334 529.899 817.596 529.213 817.513 528.337L817.505 528.17V391.772C817.505 390.818 818.278 390.044 819.233 390.044Z" fill="black"/>
<path d="M819.233 390.044C820.187 390.044 820.961 390.818 820.961 391.772C820.961 392.671 820.276 393.409 819.399 393.492L819.233 393.5H578.586C577.632 393.5 576.858 392.727 576.858 391.772C576.858 390.874 577.544 390.136 578.419 390.052L578.586 390.044H819.233Z" fill="black"/>
<path d="M819.233 417.328C820.187 417.328 820.961 418.101 820.961 419.056C820.961 419.955 820.276 420.692 819.399 420.777L819.233 420.785H578.586C577.632 420.785 576.858 420.01 576.858 419.056C576.858 418.158 577.544 417.419 578.419 417.336L578.586 417.328H819.233Z" fill="black"/>
<path d="M819.233 444.601C820.187 444.601 820.961 445.374 820.961 446.329C820.961 447.227 820.276 447.965 819.399 448.049L819.233 448.057H578.586C577.632 448.057 576.858 447.283 576.858 446.329C576.858 445.43 577.544 444.692 578.419 444.609L578.586 444.601H819.233Z" fill="black"/>
<path d="M819.233 471.885C820.187 471.885 820.961 472.659 820.961 473.613C820.961 474.512 820.276 475.251 819.399 475.335L819.233 475.342H578.586C577.632 475.342 576.858 474.569 576.858 473.613C576.858 472.716 577.544 471.977 578.419 471.893L578.586 471.885H819.233Z" fill="black"/>
<path d="M819.233 499.158C820.187 499.158 820.961 499.932 820.961 500.886C820.961 501.785 820.276 502.523 819.399 502.608L819.233 502.614H578.586C577.632 502.614 576.858 501.841 576.858 500.886C576.858 499.989 577.544 499.25 578.419 499.166L578.586 499.158H819.233Z" fill="black"/>
<path d="M819.233 526.442C820.187 526.442 820.961 527.216 820.961 528.17C820.961 529.069 820.276 529.807 819.399 529.891L819.233 529.899H578.586C577.632 529.899 576.858 529.124 576.858 528.17C576.858 527.272 577.544 526.534 578.419 526.45L578.586 526.442H819.233Z" fill="black"/>
<path fill-rule="evenodd" clip-rule="evenodd" d="M626.714 446.329H674.842V419.056H626.714V446.329Z" fill="black"/>
<path fill-rule="evenodd" clip-rule="evenodd" d="M722.978 473.608H771.105V446.335H722.978V473.608Z" fill="black"/>
<path fill-rule="evenodd" clip-rule="evenodd" d="M578.586 528.159H626.714V500.886H578.586V528.159Z" fill="black"/>
<path fill-rule="evenodd" clip-rule="evenodd" d="M576.719 609.437H821.259V556.52H576.719V609.437Z" fill="black"/>
<path fill-rule="evenodd" clip-rule="evenodd" d="M611.19 578.278V575.112C612.655 575.047 613.68 574.948 614.267 574.818C615.2 574.61 615.961 574.198 616.546 573.578C616.947 573.154 617.252 572.588 617.457 571.879C617.577 571.455 617.637 571.14 617.637 570.933H621.521V594.599H616.756V578.278H611.19Z" fill="white"/>
<path fill-rule="evenodd" clip-rule="evenodd" d="M638.272 589.237C638.718 590.68 639.631 591.4 641.014 591.4C642.394 591.4 643.3 590.68 643.73 589.237C644.16 587.796 644.375 585.715 644.375 582.995C644.375 580.144 644.16 578.033 643.73 576.662C643.3 575.291 642.394 574.605 641.014 574.605C639.631 574.605 638.718 575.291 638.272 576.662C637.825 578.033 637.602 580.144 637.602 582.995C637.602 585.715 637.825 587.796 638.272 589.237ZM647.355 573.952C648.568 576.075 649.174 579.089 649.174 582.995C649.174 586.902 648.568 589.91 647.355 592.021C646.14 594.132 644.027 595.187 641.014 595.187C638 595.187 635.886 594.132 634.672 592.021C633.459 589.91 632.853 586.902 632.853 582.995C632.853 579.089 633.459 576.075 634.672 573.952C635.886 571.832 638 570.771 641.014 570.771C644.027 570.771 646.14 571.832 647.355 573.952Z" fill="white"/>
<path fill-rule="evenodd" clip-rule="evenodd" d="M657.061 578.278V575.112C658.525 575.047 659.551 574.948 660.139 574.818C661.071 574.61 661.831 574.198 662.416 573.578C662.817 573.154 663.123 572.588 663.329 571.879C663.448 571.455 663.508 571.14 663.508 570.933H667.392V594.599H662.626V578.278H657.061Z" fill="white"/>
<path fill-rule="evenodd" clip-rule="evenodd" d="M684.142 589.237C684.589 590.68 685.503 591.4 686.885 591.4C688.266 591.4 689.171 590.68 689.601 589.237C690.031 587.796 690.247 585.715 690.247 582.995C690.247 580.144 690.031 578.033 689.601 576.662C689.171 575.291 688.266 574.605 686.885 574.605C685.503 574.605 684.589 575.291 684.142 576.662C683.695 578.033 683.473 580.144 683.473 582.995C683.473 585.715 683.695 587.796 684.142 589.237ZM693.225 573.952C694.438 576.075 695.046 579.089 695.046 582.995C695.046 586.902 694.438 589.91 693.225 592.021C692.012 594.132 689.898 595.187 686.885 595.187C683.87 595.187 681.757 594.132 680.543 592.021C679.33 589.91 678.725 586.902 678.725 582.995C678.725 579.089 679.33 576.075 680.543 573.952C681.757 571.832 683.87 570.771 686.885 570.771C689.898 570.771 692.012 571.832 693.225 573.952Z" fill="white"/>
<path fill-rule="evenodd" clip-rule="evenodd" d="M702.93 578.278V575.112C704.395 575.047 705.42 574.948 706.008 574.818C706.94 574.61 707.702 574.198 708.286 573.578C708.688 573.154 708.992 572.588 709.198 571.879C709.318 571.455 709.377 571.14 709.377 570.933H713.261V594.599H708.496V578.278H702.93Z" fill="white"/>
<path fill-rule="evenodd" clip-rule="evenodd" d="M730.013 589.237C730.459 590.68 731.373 591.4 732.754 591.4C734.136 591.4 735.041 590.68 735.471 589.237C735.901 587.796 736.116 585.715 736.116 582.995C736.116 580.144 735.901 578.033 735.471 576.662C735.041 575.291 734.136 574.605 732.754 574.605C731.373 574.605 730.459 575.291 730.013 576.662C729.565 578.033 729.342 580.144 729.342 582.995C729.342 585.715 729.565 587.796 730.013 589.237ZM739.095 573.952C740.308 576.075 740.915 579.089 740.915 582.995C740.915 586.902 740.308 589.91 739.095 592.021C737.881 594.132 735.767 595.187 732.754 595.187C729.741 595.187 727.627 594.132 726.414 592.021C725.199 589.91 724.594 586.902 724.594 582.995C724.594 579.089 725.199 576.075 726.414 573.952C727.627 571.832 729.741 570.771 732.754 570.771C735.767 570.771 737.881 571.832 739.095 573.952Z" fill="white"/>
<path fill-rule="evenodd" clip-rule="evenodd" d="M748.801 578.278V575.112C750.265 575.047 751.292 574.948 751.878 574.818C752.81 574.61 753.572 574.198 754.156 573.578C754.558 573.154 754.863 572.588 755.069 571.879C755.189 571.455 755.249 571.14 755.249 570.933H759.133V594.599H754.366V578.278H748.801Z" fill="white"/>
<path fill-rule="evenodd" clip-rule="evenodd" d="M775.884 589.237C776.33 590.68 777.243 591.4 778.626 591.4C780.006 591.4 780.912 590.68 781.342 589.237C781.771 587.796 781.987 585.715 781.987 582.995C781.987 580.144 781.771 578.033 781.342 576.662C780.912 575.291 780.006 574.605 778.626 574.605C777.243 574.605 776.33 575.291 775.884 576.662C775.435 578.033 775.213 580.144 775.213 582.995C775.213 585.715 775.435 587.796 775.884 589.237ZM784.965 573.952C786.179 576.075 786.786 579.089 786.786 582.995C786.786 586.902 786.179 589.91 784.965 592.021C783.752 594.132 781.638 595.187 778.626 595.187C775.612 595.187 773.497 594.132 772.284 592.021C771.071 589.91 770.465 586.902 770.465 582.995C770.465 579.089 771.071 576.075 772.284 573.952C773.497 571.832 775.612 570.771 778.626 570.771C781.638 570.771 783.752 571.832 784.965 573.952Z" fill="white"/>
<path d="M117.507 557.73C118.16 556.935 119.344 556.891 120.057 557.598L120.177 557.73L131.539 571.557C132.145 572.294 132.038 573.383 131.301 573.989C130.61 574.557 129.609 574.499 128.987 573.882L128.869 573.752L118.841 561.549L108.812 573.752C108.16 574.547 106.974 574.591 106.262 573.884L106.142 573.752L96.1171 561.55L86.0929 573.752C85.4396 574.546 84.2551 574.591 83.5431 573.884L83.4221 573.752L73.3921 561.549L63.3598 573.752C62.7077 574.546 61.5221 574.591 60.81 573.884L60.6902 573.752L50.6602 561.549L40.6245 573.752C39.9723 574.546 38.7879 574.591 38.0758 573.884L37.9548 573.752L26.5825 559.925C25.9765 559.189 26.0825 558.099 26.8199 557.493C27.5112 556.925 28.5113 556.982 29.1335 557.599L29.2522 557.73L39.2891 569.932L49.326 557.73C49.9793 556.935 51.1637 556.891 51.8758 557.598L51.9956 557.73L62.0244 569.932L72.0578 557.73C72.7112 556.936 73.8956 556.891 74.6077 557.598L74.7275 557.73L84.7563 569.932L94.7828 557.73C95.435 556.935 96.6206 556.891 97.3327 557.598L97.4537 557.73L107.477 569.932L117.507 557.73Z" fill="black"/>
<path d="M26.8199 585.791C27.5112 585.222 28.5113 585.279 29.1335 585.897L29.2522 586.027L39.2891 598.23L49.326 586.027C49.9793 585.233 51.1637 585.19 51.8758 585.896L51.9956 586.028L62.0256 598.23L72.0578 586.027C72.7112 585.233 73.8956 585.19 74.6077 585.896L74.7275 586.028L84.7563 598.229L94.7828 586.028C95.435 585.233 96.6206 585.19 97.3327 585.896L97.4537 586.028L107.477 598.229L117.507 586.028C118.16 585.233 119.344 585.19 120.057 585.896L120.177 586.028L131.539 599.855C132.145 600.592 132.038 601.681 131.301 602.287C130.61 602.855 129.609 602.798 128.987 602.18L128.869 602.049L118.841 589.847L108.812 602.049C108.16 602.844 106.974 602.887 106.262 602.181L106.142 602.049L96.1171 589.848L86.0929 602.049C85.4396 602.844 84.2551 602.887 83.5431 602.181L83.4221 602.049L73.3921 589.847L63.3598 602.05C62.7077 602.844 61.5221 602.887 60.81 602.181L60.6902 602.049L50.6602 589.847L40.6245 602.05C39.9723 602.844 38.7879 602.888 38.0758 602.182L37.9548 602.05L26.5825 588.223C25.9765 587.486 26.0825 586.397 26.8199 585.791Z" fill="black"/>
<path d="M631.047 671.503C631.944 671.503 632.683 672.188 632.767 673.065L632.775 673.231V707.485C632.775 708.439 632.001 709.213 631.047 709.213C630.148 709.213 629.409 708.528 629.326 707.651L629.318 707.485V673.231C629.318 672.277 630.091 671.503 631.047 671.503Z" fill="black"/>
<path d="M641.021 686.409C641.482 685.573 642.533 685.269 643.369 685.731C644.155 686.164 644.471 687.122 644.12 687.93L644.047 688.079L632.901 708.267L632.746 708.57L632.55 708.916C632.079 709.747 631.024 710.038 630.194 709.568C629.412 709.126 629.108 708.165 629.467 707.36L629.543 707.212L629.699 706.94L629.846 706.653L641.021 686.409Z" fill="black"/>
<path d="M613.809 686.806C614.512 686.251 615.511 686.329 616.121 686.958L616.237 687.092L632.209 707.325L632.393 707.554C632.991 708.298 632.873 709.386 632.13 709.984C631.431 710.545 630.432 710.476 629.817 709.853L629.7 709.72L629.572 709.558L629.493 709.465L613.524 689.233C612.933 688.484 613.06 687.397 613.809 686.806Z" fill="black"/>
<path d="M66.3785 670.876C66.5675 669.94 67.4801 669.335 68.4157 669.525C69.2959 669.704 69.8836 670.522 69.7914 671.398L69.766 671.563L62.559 707.07L62.5601 707.485C62.5601 708.384 61.8746 709.121 60.9977 709.205L60.8318 709.213C59.9331 709.213 59.1945 708.528 59.1116 707.651L59.1035 707.485V706.897L59.1116 706.724L59.1381 706.554L66.3785 670.876Z" fill="black"/>
<path d="M74.195 694.192C74.9244 693.577 76.0144 693.668 76.6308 694.397C77.2092 695.08 77.1643 696.082 76.5559 696.712L76.4268 696.832L62.5232 708.583L62.3354 708.916C61.8918 709.698 60.932 710.002 60.1277 709.643L59.9791 709.568C59.1979 709.126 58.8937 708.165 59.252 707.361L59.3281 707.212L59.4813 706.946L59.5965 706.715C59.6749 706.559 59.7775 706.415 59.8984 706.288L60.0263 706.168L74.195 694.192Z" fill="black"/>
<path d="M43.5948 686.806C44.2976 686.251 45.2966 686.329 45.9061 686.958L46.0225 687.092L61.9944 707.325L62.1788 707.554C62.7768 708.298 62.6581 709.386 61.9137 709.984C61.2167 710.545 60.2177 710.476 59.6024 709.853L59.4849 709.72L59.357 709.558L59.2787 709.465L43.3091 689.233C42.718 688.484 42.8459 687.397 43.5948 686.806Z" fill="black"/>
<path d="M802.933 94.8656C803.501 94.0982 804.583 93.9357 805.35 94.5038C806.072 95.0384 806.259 96.0281 805.805 96.7828L805.712 96.9211L780.705 130.733C780.139 131.5 779.057 131.661 778.288 131.094C777.567 130.56 777.38 129.57 777.834 128.815L777.926 128.677L802.933 94.8656Z" fill="black"/>
<path d="M787.639 162.772C787.955 161.931 788.857 161.482 789.706 161.712L789.866 161.764L829.225 176.575C830.118 176.911 830.569 177.907 830.233 178.802C829.917 179.643 829.015 180.092 828.166 179.862L828.007 179.81L788.648 164.998C787.755 164.663 787.303 163.666 787.639 162.772Z" fill="black"/>
<path d="M834.658 129.872C835.574 129.601 836.535 130.124 836.805 131.04C837.06 131.902 836.611 132.804 835.794 133.133L835.637 133.187L791.487 146.219C790.571 146.49 789.61 145.967 789.34 145.051C789.085 144.189 789.534 143.287 790.351 142.959L790.507 142.905L834.658 129.872Z" fill="black"/>
<path d="M64.8957 334.282C65.8394 334.14 66.7196 334.791 66.8614 335.736C66.9939 336.624 66.4258 337.455 65.5709 337.668L65.4073 337.7L23.8172 343.926C22.8735 344.067 21.9933 343.416 21.8527 342.473C21.719 341.584 22.2882 340.752 23.142 340.539L23.3056 340.507L64.8957 334.282Z" fill="black"/>
<path d="M63.8654 265.27C64.6835 264.899 65.6387 265.219 66.0765 265.983L66.1526 266.131L83.5094 304.436C83.9035 305.306 83.5175 306.33 82.6487 306.724C81.8306 307.094 80.8743 306.775 80.4365 306.011L80.3604 305.863L63.0036 267.558C62.6095 266.688 62.9955 265.664 63.8654 265.27Z" fill="black"/>
<path d="M25.4464 294.396C25.8762 293.606 26.8302 293.286 27.6402 293.631L27.79 293.703L68.2232 315.707C69.062 316.163 69.372 317.213 68.9157 318.052C68.486 318.841 67.5308 319.161 66.7219 318.817L66.571 318.744L26.1377 296.74C25.3001 296.284 24.9901 295.234 25.4464 294.396Z" fill="black"/>
<path fill-rule="evenodd" clip-rule="evenodd" d="M236.27 487.458C236.27 489.309 234.77 490.809 232.92 490.809C231.068 490.809 229.569 489.309 229.569 487.458C229.569 485.608 231.068 484.108 232.92 484.108C234.77 484.108 236.27 485.608 236.27 487.458Z" fill="black"/>
<path fill-rule="evenodd" clip-rule="evenodd" d="M287.078 466.389C287.067 467.046 287.021 467.68 286.917 468.29C285.016 468.647 282.976 468.832 280.845 468.832C271.731 468.832 264.138 465.375 262.421 460.778C264.345 459.337 266.615 457.886 269.553 456.399C277.78 452.251 280.591 453.288 281.536 453.739C285.638 455.673 287.17 461.941 287.078 466.389Z" fill="black"/>
<path fill-rule="evenodd" clip-rule="evenodd" d="M205.92 708.641H194.176C194.277 707.632 194.39 706.624 194.503 705.616C196.557 703.55 198.712 701.205 200.904 698.546C202.392 699.719 203.841 701.345 204.824 703.575C205.618 705.402 205.896 707.154 205.92 708.641Z" fill="black"/>
<path fill-rule="evenodd" clip-rule="evenodd" d="M237.965 708.641H226.221C226.322 707.632 226.435 706.624 226.548 705.616C228.602 703.55 230.757 701.205 232.95 698.546C234.436 699.719 235.885 701.345 236.868 703.575C237.663 705.402 237.94 707.154 237.965 708.641Z" fill="black"/>
<path fill-rule="evenodd" clip-rule="evenodd" d="M270.633 708.641H258.888C261.238 704.156 262.627 701.232 264.455 697.576C265.942 698.749 268.553 701.345 269.536 703.575C270.33 705.402 270.607 707.154 270.633 708.641Z" fill="black"/>
<path fill-rule="evenodd" clip-rule="evenodd" d="M452.484 117.019C450.408 116.537 448.226 115.96 445.955 115.268C444.312 114.766 442.744 114.241 441.25 113.703C441.418 115.615 442.119 118.782 443.489 121.31C445.763 125.502 448.74 127.38 450.347 128.917C451.414 123.364 451.42 121.929 452.484 117.019Z" fill="black"/>
<path fill-rule="evenodd" clip-rule="evenodd" d="M441.969 122.133C440.644 119.686 439.756 116.43 439.529 113.854C439.418 112.597 440.649 111.649 441.837 112.077C443.357 112.625 444.895 113.137 446.459 113.614C448.612 114.271 450.751 114.843 452.875 115.335C453.796 115.549 454.374 116.461 454.173 117.385C453.753 119.326 453.493 120.727 453.191 122.581L452.712 125.537C452.603 126.198 452.513 126.719 452.419 127.245L452.044 129.243C451.786 130.586 450.142 131.112 449.153 130.166C449.015 130.034 448.861 129.894 448.661 129.721L447.249 128.516C446.252 127.654 445.452 126.885 444.667 125.994C443.646 124.836 442.749 123.571 441.969 122.133ZM444.24 116.543L443.444 116.283L443.586 116.823C443.943 118.123 444.43 119.418 445.009 120.485C445.66 121.687 446.406 122.74 447.259 123.708C447.536 124.022 447.983 124.463 448.485 124.938L449.197 125.6L449.881 121.406C450.051 120.393 450.215 119.485 450.408 118.512L450.448 118.304L449.447 118.05C448.562 117.82 447.675 117.576 446.787 117.317L445.451 116.92C445.046 116.797 444.642 116.671 444.24 116.543Z" fill="black"/>
<path fill-rule="evenodd" clip-rule="evenodd" d="M262.5 140.034C299.798 140.034 330.034 109.798 330.034 72.5C330.034 35.2018 299.798 4.96579 262.5 4.96579C225.202 4.96579 194.966 35.2018 194.966 72.5C194.966 109.798 225.202 140.034 262.5 140.034ZM262.5 141.737C300.739 141.737 331.737 110.739 331.737 72.5C331.737 34.2615 300.739 3.26324 262.5 3.26324C224.261 3.26324 193.263 34.2615 193.263 72.5C193.263 110.739 224.261 141.737 262.5 141.737Z" fill="black"/>
<path fill-rule="evenodd" clip-rule="evenodd" d="M261.261 107.429V98.3401H260.595C258.287 98.3401 255.925 97.999 253.573 97.3282C251.47 96.7238 249.656 95.8618 248.177 94.7659L249.439 92.6071C250.877 93.6025 252.55 94.4441 254.429 95.1166C256.588 95.8884 258.929 96.2811 261.388 96.2811C263.313 96.2811 265.104 96.0053 266.714 95.4668C268.33 94.9225 269.725 94.153 270.866 93.1791C272.006 92.199 272.914 91.0225 273.564 89.6753C274.212 88.328 274.546 86.8644 274.546 85.3196C274.546 82.3186 273.507 79.8136 271.458 77.8772C269.478 76.0078 266.704 74.3456 263.209 72.9381C258.297 70.9586 254.646 68.8622 252.36 66.708C250.119 64.5979 249.03 61.9936 249.03 58.7463C249.03 55.4888 250.126 52.7919 252.38 50.5031C254.617 48.2297 257.704 46.824 261.562 46.3245L262.14 46.249V37.0684H264.481V46.303L265.115 46.3296C267.651 46.4426 269.803 46.8211 271.51 47.4573C272.988 48.0095 274.303 48.6196 275.429 49.2745L274.182 51.4055C273.348 50.8919 272.194 50.3085 270.747 49.6604C268.86 48.8176 266.42 48.3892 263.484 48.3892C261.366 48.3892 259.548 48.6985 258.072 49.3085C256.592 49.9158 255.375 50.6944 254.448 51.6143C253.509 52.5394 252.81 53.6103 252.372 54.7958C251.937 55.9638 251.718 57.117 251.718 58.223C251.718 60.9477 252.702 63.2092 254.646 64.947C256.499 66.603 259.591 68.3322 263.841 70.0875C265.956 70.9944 267.89 71.945 269.578 72.9058C271.235 73.8541 272.655 74.938 273.795 76.1225C274.927 77.2989 275.804 78.6314 276.415 80.0786C277.016 81.5144 277.326 83.1914 277.326 85.0631C277.326 86.4166 277.06 87.824 276.534 89.2496C276.007 90.6769 275.207 92.0208 274.161 93.2483C273.114 94.4776 271.733 95.5638 270.067 96.4735C268.399 97.3844 266.416 98.0143 264.165 98.3469L263.603 98.4303V107.429H261.261Z" fill="black"/>
<path fill-rule="evenodd" clip-rule="evenodd" d="M262.5 121.306C289.455 121.306 311.306 99.4547 311.306 72.5C311.306 45.5453 289.455 23.6937 262.5 23.6937C235.545 23.6937 213.694 45.5453 213.694 72.5C213.694 99.4547 235.545 121.306 262.5 121.306ZM262.5 123.009C290.395 123.009 313.009 100.395 313.009 72.5C313.009 44.6049 290.395 21.9912 262.5 21.9912C234.605 21.9912 211.991 44.6049 211.991 72.5C211.991 100.395 234.605 123.009 262.5 123.009Z" fill="black"/>
</g>
<defs>
<clipPath id="clip0_21_66">
<rect width="853.728" height="720" fill="white"/>
</clipPath>
</defs>
</svg>
