<svg width="20" height="19" viewBox="0 0 20 19" fill="none" xmlns="http://www.w3.org/2000/svg">
<path fill-rule="evenodd" clip-rule="evenodd" d="M7.85545 2.82439C7.83169 2.32208 7.83645 1.83308 7.86021 1.37401C7.941 -0.00650419 9.22408 -0.00174779 9.32388 0.000153093C9.53297 0.0049053 10.4645 0.0638264 10.6878 1.1402C10.7021 1.20436 10.7353 1.66912 10.7448 1.84828C10.7639 2.23035 10.7733 2.60579 10.7211 2.98264C10.7686 3.62181 10.8731 4.27952 11.0727 4.89826C11.3626 5.81163 11.8331 6.65467 12.6837 7.10375C14.2044 7.91163 16.2051 7.87883 17.8779 8.08413C18.5765 8.16967 19.1087 8.75228 19.1325 9.45561C19.1515 10.1594 18.6573 10.7734 17.9635 10.9012C15.8725 11.2881 13.4678 13.1894 11.9376 14.7206C11.4671 15.1911 10.9396 16.3116 10.3504 17.0292C9.87515 17.6042 9.34764 17.9896 8.84865 18.1427C8.65381 18.2021 7.57508 18.4188 7.09035 17.302C6.95729 16.9884 6.48682 15.346 6.44405 15.1588C6.18743 14.0857 5.82154 13.1272 5.10395 12.2737C4.48141 11.5337 3.72578 10.8875 2.8181 10.5291C2.45218 10.3847 2.072 10.2749 1.69182 10.1618C1.55876 10.1456 1.18335 10.0981 1.05028 10.053C0.779407 9.96268 0.579795 9.82108 0.437228 9.67994C0.166351 9.41286 0.02852 9.09398 0.00475884 8.73092C-0.0142501 8.4914 0.0190225 8.20722 0.190103 7.89214C0.318413 7.66831 0.60829 7.33138 1.13104 7.11277C1.67754 6.88419 2.85137 6.66701 3.06047 6.61046C4.51465 6.21888 5.94034 5.62345 7.05711 4.59127C7.61312 4.07518 7.7414 3.51869 7.85545 2.82439ZM8.78693 6.86568C9.34769 8.02807 10.184 9.00655 11.3483 9.62291C11.8283 9.87906 12.3511 10.0734 12.8928 10.2245C11.776 11.002 10.74 11.8859 9.9179 12.7052C9.65178 12.9718 9.36192 13.4033 9.05302 13.8771C8.69185 12.612 8.15962 11.4758 7.28521 10.436C6.76721 9.82298 6.18266 9.26268 5.5316 8.79554C6.71016 8.32887 7.82698 7.70444 8.78693 6.86568Z" fill="#B34DD7"/>
</svg>
