<svg width="137" height="70" viewBox="0 0 137 70" fill="none" xmlns="http://www.w3.org/2000/svg">
<path d="M18.4541 20.5576C19.617 21.087 20.7147 22.1925 21.3048 23.9165C22.8932 28.5584 27.9695 31.7214 32.3685 29.3177C34.1114 28.3653 37.1184 29.3948 38.2514 32.7065C39.8398 37.3483 44.9161 40.5113 49.3154 38.1078C49.7645 37.8621 50.2976 37.7484 50.8613 37.7713V41.0738C49.1689 40.5382 47.3258 40.6189 45.5884 41.5684C43.8455 42.5209 40.8385 41.4914 39.7054 38.1797C38.1166 33.5378 33.0405 30.3747 28.6415 32.7785C26.8986 33.7308 23.8917 32.7013 22.7585 29.3897C21.9871 27.1357 20.3934 25.2303 18.4541 24.1418V20.5576Z" fill="black"/>
<path d="M21.5505 18.2345C22.979 19.352 24.1249 20.9341 24.7429 22.7399C25.8762 26.0516 28.8831 27.0811 30.6259 26.1288C35.0249 23.725 40.1011 26.8881 41.6895 31.5299C42.8229 34.8415 45.8297 35.8711 47.5729 34.9187C48.6485 34.3308 49.7652 34.0759 50.8612 34.0942V18.2345H21.5505Z" fill="black"/>
<path d="M18.4541 28.8694V32.3701C19.4443 33.3854 20.2334 34.6435 20.7094 36.0344C21.8427 39.3459 24.8496 40.3754 26.5924 39.4233C30.9914 37.0194 36.0677 40.1824 37.6562 44.8244C38.7893 48.1361 41.7964 49.1656 43.5392 48.2131C46.0125 46.8616 48.6998 47.2701 50.8613 48.7113V45.0526C49.6522 44.3106 48.2971 44.2292 47.3309 44.7572C42.9316 47.1611 37.8553 43.9981 36.267 39.3561C35.1337 36.0446 32.1268 35.0151 30.384 35.9674C25.985 38.3713 20.9087 35.2081 19.3203 30.5663C19.0965 29.9124 18.7998 29.3476 18.4541 28.8694Z" fill="black"/>
<path d="M37.5875 50.6417C36.0767 49.5184 34.8613 47.881 34.2179 46.0011C33.0847 42.6895 30.0778 41.6596 28.3349 42.6121C24.7334 44.5803 20.6779 42.8167 18.4541 39.5654V50.6417H37.5875Z" fill="black"/>
<path fill-rule="evenodd" clip-rule="evenodd" d="M64.7109 25.139C66.3679 25.139 67.8153 25.3818 69.0534 25.8671C70.2922 26.3524 71.3214 27.0217 72.1416 27.8751C72.961 28.712 73.5722 29.6742 73.9734 30.7619C74.3921 31.8331 74.6014 32.9458 74.6014 34.1006V34.6528C74.6014 35.7573 74.3921 36.845 73.9734 37.9163C73.5722 38.9872 72.961 39.9579 72.1416 40.8282C71.3214 41.6982 70.2922 42.393 69.0534 42.9115C67.8153 43.4305 66.3679 43.6899 64.7109 43.6899H58.084V25.139H64.7109ZM64.9369 40.3761H61.6485V28.4525H64.9369C65.8908 28.4525 66.7361 28.5865 67.4723 28.8543C68.2253 29.122 68.8612 29.5152 69.3801 30.034C69.899 30.5529 70.2922 31.1803 70.5597 31.9167C70.8442 32.6364 70.9867 33.4563 70.9867 34.3767C70.9867 35.2637 70.8442 36.0753 70.5597 36.8116C70.2922 37.5311 69.899 38.1587 69.3801 38.6943C68.8612 39.23 68.2253 39.6482 67.4723 39.9495C66.7361 40.234 65.8908 40.3761 64.9369 40.3761Z" fill="black"/>
<path d="M77.2412 42.4599C78.1111 43.4973 79.3332 44.0163 80.906 44.0163H81.0568C82.111 44.0163 82.9897 43.7819 83.6925 43.3131C84.3953 42.8447 84.9223 42.1502 85.2737 41.2298C85.3711 40.9754 85.4546 40.7036 85.5251 40.4147V43.5893H88.2862V29.9337H84.7969V37.9915C84.7969 38.8786 84.5378 39.5814 84.0189 40.1003C83.5166 40.6189 82.864 40.8784 82.0605 40.8784C81.2574 40.8784 80.6215 40.6356 80.1527 40.1501C79.6843 39.6483 79.4503 38.9789 79.4503 38.142V29.9337H75.9609V37.8407C75.9609 39.8827 76.3876 41.422 77.2412 42.4599Z" fill="black"/>
<path d="M91.0388 43.5893V29.9586H93.8003V33.3182C93.8813 32.9683 93.9816 32.6435 94.1015 32.3434C94.47 31.4064 95.0136 30.7033 95.7332 30.2349C96.4698 29.7663 97.3819 29.5319 98.4695 29.5319H98.62C100.244 29.5319 101.473 30.0591 102.31 31.1134C103.147 32.1509 103.565 33.7074 103.565 35.7825V43.5893H100.076V35.4813C100.076 34.6444 99.8334 33.9668 99.3482 33.448C98.8794 32.9291 98.2268 32.6697 97.3899 32.6697C96.5363 32.6697 95.8418 32.9375 95.3065 33.473C94.7876 33.9918 94.5285 34.6946 94.5285 35.5817V43.5893H91.0388Z" fill="black"/>
<path fill-rule="evenodd" clip-rule="evenodd" d="M109.073 43.4639C109.961 43.8654 110.99 44.0664 112.161 44.0664C113.282 44.0664 114.278 43.8738 115.148 43.4889C116.036 43.1041 116.763 42.5601 117.332 41.8573C117.901 41.1545 118.286 40.3343 118.487 39.3971H115.274C115.123 39.8993 114.78 40.326 114.245 40.6774C113.709 41.012 113.015 41.1796 112.161 41.1796C111.308 41.1796 110.605 40.9953 110.053 40.6272C109.5 40.2424 109.09 39.7234 108.823 39.0708C108.644 38.626 108.526 38.1409 108.466 37.615H118.713V36.3599C118.713 35.1549 118.462 34.0337 117.96 32.996C117.458 31.9418 116.705 31.0967 115.701 30.4608C114.713 29.8082 113.483 29.4817 112.01 29.4817C110.889 29.4817 109.902 29.6825 109.049 30.0842C108.195 30.4691 107.475 30.9963 106.89 31.6656C106.321 32.3184 105.886 33.0714 105.584 33.9249C105.3 34.7615 105.158 35.6319 105.158 36.5357V37.0125C105.158 37.8828 105.3 38.7361 105.584 39.573C105.886 40.4095 106.321 41.1712 106.89 41.8573C107.475 42.5267 108.203 43.0623 109.073 43.4639ZM108.526 35.4812C108.593 35.0978 108.692 34.7463 108.823 34.4269C108.977 34.0647 109.167 33.7493 109.395 33.4801C109.587 33.2517 109.807 33.0569 110.053 32.8956C110.588 32.5443 111.241 32.3686 112.01 32.3686C112.78 32.3686 113.416 32.5359 113.918 32.8706C114.437 33.2052 114.822 33.6822 115.073 34.3014C115.136 34.4574 115.191 34.6214 115.239 34.7933C115.262 34.8765 115.283 34.9615 115.302 35.0485C115.333 35.1879 115.359 35.3322 115.38 35.4812H108.526Z" fill="black"/>
</svg>
