<svg width="128" height="124" viewBox="0 0 128 124" fill="none" xmlns="http://www.w3.org/2000/svg">
<path d="M96.6553 78.5776C96.6553 103.447 69.8984 123.607 45.0294 123.607C20.1603 123.607 0 103.447 0 78.5776C0 53.7085 8.90871 31.3087 33.7777 31.3087C58.6468 31.3087 96.6553 53.7085 96.6553 78.5776Z" fill="#FFCB3C"/>
<mask id="mask0_9_18" style="mask-type:alpha" maskUnits="userSpaceOnUse" x="0" y="0" width="113" height="124">
<path d="M90.0587 78.5776C90.0587 103.447 69.8984 123.607 45.0294 123.607C20.1603 123.607 0 103.447 0 78.5776C0 53.7085 79.1539 1.96107e-06 104.023 1.96107e-06C128.892 1.96107e-06 90.0587 53.7085 90.0587 78.5776Z" fill="#FFCB3C"/>
</mask>
<g mask="url(#mask0_9_18)">
<path fill-rule="evenodd" clip-rule="evenodd" d="M39.6651 72.5492C36.8815 71.3814 33.7367 71.1488 30.2703 72.1633C18.4336 75.6272 13.5866 84.8511 12.9384 95.8391C12.0303 111.283 19.7351 130.295 26.6357 139.742C27.4423 140.845 28.9912 141.085 30.0947 140.281C31.1957 139.475 31.4382 137.926 30.6316 136.822C24.2332 128.063 17.0357 110.452 17.8794 96.1311C18.399 87.2734 22.1203 79.7047 31.6609 76.9113C33.7244 76.3076 35.6023 76.3917 37.2922 76.9855C36.7429 78.0866 36.2183 79.19 35.721 80.2935C33.7342 84.7125 30.7652 96.9823 31.8736 106.003C32.752 113.141 36.1243 118.261 43.0819 118.073C47.0654 117.966 50.0048 115.559 51.769 111.612C53.9438 106.746 54.2407 99.3006 52.7117 92.1624C51.4424 86.2267 48.9235 80.5311 45.3903 76.701C44.8955 76.1641 44.3808 75.6618 43.8489 75.1967C55.4481 54.6334 76.3826 35.5521 97.8763 27.4242C99.153 26.9418 99.7962 25.5141 99.3137 24.2349C98.8312 22.9582 97.4012 22.315 96.1245 22.7974C73.7055 31.2741 51.8531 51.115 39.6651 72.5492ZM41.449 79.7418C41.0283 80.6004 40.6225 81.4614 40.2365 82.3224C38.4526 86.2886 35.7904 97.3014 36.785 105.4C37.312 109.685 38.7743 113.238 42.9508 113.127C44.9994 113.072 46.3454 111.622 47.251 109.593C48.4534 106.904 48.8815 103.257 48.691 99.3748C48.3917 93.3526 46.5731 86.7612 43.3714 82.0998C42.7801 81.2387 42.1393 80.4445 41.449 79.7418Z" fill="#35312B"/>
<path fill-rule="evenodd" clip-rule="evenodd" d="M81.3087 58.3712C83.2386 47.1159 90.6192 35.1406 98.5491 26.842C99.4918 25.8548 99.4572 24.2886 98.47 23.3435C97.4828 22.4008 95.9141 22.4355 94.9714 23.4227C86.4032 32.3918 78.5153 45.374 76.432 57.5349C76.2019 58.8808 77.1075 60.16 78.4535 60.3901C79.7995 60.6202 81.0786 59.7172 81.3087 58.3712Z" fill="#35312B"/>
<path fill-rule="evenodd" clip-rule="evenodd" d="M95.1843 22.9501C87.0317 27.6041 74.527 28.2127 65.4119 25.8523C64.0882 25.5109 62.7373 26.3076 62.3958 27.6289C62.0544 28.9501 62.8487 30.301 64.1724 30.6449C74.4206 33.2948 88.4717 32.4808 97.6387 27.2478C98.8239 26.5724 99.2372 25.0581 98.5592 23.8729C97.8813 22.6878 96.3695 22.2746 95.1843 22.9501Z" fill="#35312B"/>
</g>
<path fill-rule="evenodd" clip-rule="evenodd" d="M116.343 11.4162C116.319 10.9139 116.324 10.4249 116.347 9.96587C116.428 8.58535 117.711 8.59011 117.811 8.59201C118.02 8.59676 118.952 8.65568 119.175 9.73206C119.189 9.79621 119.223 10.261 119.232 10.4401C119.251 10.8222 119.261 11.1976 119.208 11.5745C119.256 12.2137 119.36 12.8714 119.56 13.4901C119.85 14.4035 120.32 15.2465 121.171 15.6956C122.692 16.5035 124.692 16.4707 126.365 16.676C127.064 16.7615 127.596 17.3441 127.62 18.0475C127.639 18.7513 127.144 19.3653 126.451 19.4931C124.36 19.8799 121.955 21.7813 120.425 23.3125C119.954 23.7829 119.427 24.9035 118.838 25.6211C118.362 26.1961 117.835 26.5815 117.336 26.7345C117.141 26.7939 116.062 27.0106 115.578 25.8939C115.444 25.5802 114.974 23.9378 114.931 23.7506C114.675 22.6776 114.309 21.719 113.591 20.8655C112.969 20.1256 112.213 19.4793 111.305 19.121C110.939 18.9765 110.559 18.8668 110.179 18.7537C110.046 18.7375 109.671 18.69 109.537 18.6448C109.267 18.5545 109.067 18.4129 108.924 18.2718C108.654 18.0047 108.516 17.6858 108.492 17.3228C108.473 17.0833 108.506 16.7991 108.677 16.484C108.806 16.2602 109.095 15.9232 109.618 15.7046C110.165 15.4761 111.339 15.2589 111.548 15.2023C113.002 14.8107 114.428 14.2153 115.544 13.1831C116.1 12.667 116.229 12.1105 116.343 11.4162ZM117.274 15.4575C117.835 16.6199 118.671 17.5984 119.836 18.2148C120.315 18.4709 120.838 18.6653 121.38 18.8164C120.263 19.5939 119.227 20.4778 118.405 21.297C118.139 21.5636 117.849 21.9951 117.54 22.4689C117.179 21.2039 116.647 20.0677 115.772 19.0279C115.254 18.4148 114.67 17.8545 114.019 17.3874C115.197 16.9207 116.314 16.2963 117.274 15.4575Z" fill="#35312B"/>
</svg>
