<svg width="343" height="33" viewBox="0 0 343 33" fill="none" xmlns="http://www.w3.org/2000/svg">
<path fill-rule="evenodd" clip-rule="evenodd" d="M187.629 14.3026C147.983 15.1401 108.338 17.2113 68.859 20.5837C47.2961 22.4253 22.2526 22.2047 1.3335 28.4813C-0.314448 28.9766 0.0142532 30.485 0.050274 30.6336C0.122316 30.9442 0.423994 31.9753 1.74326 32.0248C1.84682 32.0293 2.55374 31.9393 2.8284 31.9033C8.98795 31.0928 15.1295 30.1473 21.2936 29.3818C42.5863 26.7298 63.9331 24.7306 85.316 22.9746C113.7 20.6423 142.323 19.395 170.784 18.427C186.368 17.8911 202.32 18.598 217.958 17.5039C223.685 17.4724 229.422 17.468 235.158 17.486C259.143 17.5715 283.102 18.481 307.055 19.7283C314.755 20.129 320.635 20.5612 328.182 20.8539C331.05 20.9665 335.602 21.043 338.763 21.0926C339.222 21.1016 340.375 21.1105 340.875 21.115C340.942 21.124 341.01 21.124 341.077 21.124C341.32 21.1195 341.442 21.106 341.464 21.1015C343.18 20.8493 343.022 19.2374 342.973 18.9853C342.964 18.9312 342.711 17.5669 341.244 17.5174C341.023 17.5084 339.434 17.4995 338.821 17.4905C335.683 17.441 331.167 17.3644 328.321 17.2563C320.793 16.9637 314.926 16.5314 307.24 16.1307C283.232 14.8835 259.215 13.9695 235.171 13.8839C232.362 13.8749 229.557 13.8704 226.756 13.8749C226.549 13.6047 226.229 13.357 225.721 13.2264C225.257 13.1049 221.925 12.9879 220.637 12.8798C211.335 12.1189 211.609 12.1504 201.37 11.5245C185.864 10.5745 183.504 10.3583 167.38 9.95754C147.645 9.46676 127.906 9.33171 108.167 9.31821C136.515 7.94942 165.052 8.134 193.36 7.71976C206.161 7.53515 218.958 7.20199 231.758 7.30105C236.153 7.33707 240.543 7.49919 244.938 7.55322C245.847 7.56673 248.184 7.7243 248.522 7.64776C249.638 7.40012 249.877 6.56711 249.945 6.16188C249.981 5.92774 250.143 4.54097 248.481 4.05469C241.065 1.89345 227.382 1.97897 220.178 1.55122C179.835 -0.835155 139.41 -0.168783 99.0489 1.5377C82.3848 2.24011 65.7747 3.24425 49.1781 4.86518C43.3743 5.42801 37.5569 5.90979 31.7756 6.66622C30.839 6.78779 28.7273 6.96332 27.7053 7.14792C27.1785 7.24698 26.8047 7.39106 26.6291 7.48562C25.8097 7.94938 25.6701 8.63381 25.6656 9.09308C25.6611 9.42627 25.7466 10.6735 27.4036 10.9932C44.2568 14.2936 62.5914 13.0059 79.5347 12.9608C108.788 12.8888 138.046 12.8302 167.29 13.5596C177.183 13.8073 181.874 13.9829 187.629 14.3026ZM196.053 4.07723C163.778 3.07315 131.468 3.77099 99.1975 5.13527C82.6009 5.83768 66.0584 6.8373 49.5293 8.44923C46.8953 8.70588 44.2658 8.94449 41.6363 9.20113C54.2571 10.1062 67.2651 9.39479 79.5256 9.35877L87.941 9.34074C87.8735 9.16964 87.8285 8.98505 87.8149 8.79594C87.7384 7.80537 88.4813 6.93635 89.4719 6.8598C123.926 4.24379 158.785 4.62197 193.311 4.11768C194.225 4.10417 195.139 4.09074 196.053 4.07723Z" fill="#35312B"/>
</svg>
